<?xml version="1.0" encoding="UTF-8"?>
<!DOCTYPE svg PUBLIC "-//W3C//DTD SVG 1.1//EN" "http://www.w3.org/Graphics/SVG/1.1/DTD/svg11.dtd">
<svg id="svg-navatech" xmlns="http://www.w3.org/2000/svg" xml:space="preserve" width="1122px" height="354px" version="1.1" style="shape-rendering:geometricPrecision; text-rendering:geometricPrecision; image-rendering:optimizeQuality; fill-rule:evenodd; clip-rule:evenodd"
viewBox="0 0 1122 354"
 xmlns:xlink="http://www.w3.org/1999/xlink">
 <defs>
  <style type="text/css">
   <![CDATA[
    .r_0 {fill:#ffffff;fill-opacity: 0}
	.r_0:hover + .text, .text:hover {fill:#3b3b3b;}
    .text {fill:#898B8C;fill-rule:nonzero;transition: fill 0.6s ease}
    .n_2 {fill:#F26B3A;fill-rule:nonzero;transition: fill 0.6s ease}
	.n_2:hover {fill:#F58D5E}
    .n_1,.n_3 {fill:#E44B38;fill-rule:nonzero;transition: fill 0.6s ease}
	.n_1:hover,.n_3:hover {fill:#EB7855}
   ]]>
  </style>
 </defs>
 <g id="Layer_x0020_1">
  <polygon class="n_1" points="19,343 86,308 86,4 19,39 "/>
  <polygon class="n_3" points="182,350 249,315 249,8 182,43 "/>
  <polygon class="n_2" points="249,315 182,350 19,39 86,4 "/>
  <rect class="r_0" x="300" y="122" width="803" height="141"/>
  <path class="text" d="M300 122l9 0 72 125 0 -125 8 0 0 141 -8 0 -73 -127 0 127 -8 0 0 -141zm209 141l-8 0 0 -18c-1,2 -3,4 -5,6 -9,10 -21,14 -34,14 -13,0 -25,-4 -34,-14 -10,-9 -14,-21 -14,-34 0,-14 4,-25 14,-34 9,-10 21,-15 34,-15 13,0 25,5 34,15 2,1 4,3 5,5l0 -12 8 0 0 87zm-8 -38l0 -16c-1,-8 -5,-15 -11,-20 -8,-8 -17,-12 -28,-12 -11,0 -21,4 -28,12 -8,7 -12,17 -12,28 0,11 4,20 12,28 7,8 17,12 28,12 11,0 20,-4 28,-12 6,-6 10,-13 11,-20zm68 23l34 -72 9 0 -43 89 -42 -89 9 0 33 72zm152 15l-8 0 0 -18c-2,2 -4,4 -5,6 -10,10 -21,14 -35,14 -13,0 -25,-4 -34,-14 -9,-9 -14,-21 -14,-34 0,-14 5,-25 14,-34 9,-10 21,-15 34,-15 14,0 25,5 35,15 1,1 3,3 5,5l0 -12 8 0 0 87zm-8 -38l0 -16c-2,-8 -6,-15 -11,-20 -8,-8 -18,-12 -29,-12 -11,0 -20,4 -28,12 -8,7 -12,17 -12,28 0,11 4,20 12,28 8,8 17,12 28,12 11,0 21,-4 29,-12 5,-6 9,-13 11,-20zm69 -95l0 133 -8 0 0 -133 -36 0 0 -8 80 0 0 8 -36 0zm62 117c8,6 17,10 27,10 11,0 21,-4 28,-12 1,-1 2,-2 3,-3l9 3c-2,2 -4,4 -6,6 -9,10 -20,14 -34,14 -13,0 -25,-4 -34,-14 -10,-9 -14,-21 -14,-34 0,-14 4,-25 14,-34 9,-10 21,-15 34,-15 12,0 22,4 30,11 2,1 3,2 4,4 1,0 1,1 2,1l-6 6 -57 57zm51 -62c-7,-6 -15,-8 -24,-8 -11,0 -20,4 -28,11 -8,8 -12,18 -12,29 0,9 3,17 8,24l56 -56zm111 57l9 3c-2,2 -4,4 -6,6 -9,10 -21,14 -34,14 -13,0 -25,-4 -34,-14 -10,-9 -14,-21 -14,-34 0,-14 4,-25 14,-34 9,-10 21,-15 34,-15 13,0 25,5 34,15 2,1 4,3 6,6l-9 3c-1,-1 -2,-3 -3,-4 -7,-7 -17,-11 -28,-11 -11,0 -20,4 -28,11 -8,8 -12,18 -12,29 0,11 4,20 12,28 8,8 17,12 28,12 11,0 21,-4 28,-12 1,-1 2,-2 3,-3zm30 -120l8 0 0 59c6,-7 14,-10 24,-10 10,0 18,3 25,10 6,6 10,14 10,24l0 58 -8 0 0 -57c0,-8 -3,-14 -8,-19 -6,-6 -12,-8 -19,-8 -7,0 -14,2 -19,8 -2,2 -4,4 -5,7l0 69 -8 0 0 -141z"/>
 </g>
</svg>
