<?xml version="1.0" encoding="UTF-8"?>
<!DOCTYPE svg PUBLIC "-//W3C//DTD SVG 1.1//EN" "http://www.w3.org/Graphics/SVG/1.1/DTD/svg11.dtd">
<!-- Creator: CorelDRAW X7 -->
<svg xmlns="http://www.w3.org/2000/svg" xml:space="preserve" width="1570px" height="2300px" version="1.1" style="shape-rendering:geometricPrecision; text-rendering:geometricPrecision; image-rendering:optimizeQuality; fill-rule:evenodd; clip-rule:evenodd"
viewBox="0 0 1570 2300"
 xmlns:xlink="http://www.w3.org/1999/xlink">
 <defs>
 </defs>
  <g id="v">
   <circle class="fil5" cx="139" cy="2166" r="16"/>
   <circle class="fil5" cx="178" cy="2166" r="16"/>
   <circle class="fil5" cx="216" cy="2166" r="16"/>
   <circle class="fil5" cx="255" cy="2166" r="16"/>
   <circle class="fil5" cx="293" cy="2166" r="16"/>
   <circle class="fil5" cx="332" cy="2166" r="16"/>
   <circle class="fil5" cx="371" cy="2166" r="16"/>
   <circle class="fil5" cx="409" cy="2166" r="16"/>
   <circle class="fil5" cx="448" cy="2166" r="16"/>
   <circle class="fil5" cx="486" cy="2166" r="16"/>
   <circle class="fil5" cx="1073" cy="2166" r="16"/>
   <circle class="fil5" cx="1111" cy="2166" r="16"/>
   <circle class="fil5" cx="1150" cy="2166" r="16"/>
   <circle class="fil5" cx="1188" cy="2166" r="16"/>
   <circle class="fil5" cx="1227" cy="2166" r="16"/>
   <circle class="fil5" cx="1266" cy="2166" r="16"/>
   <circle class="fil5" cx="1304" cy="2166" r="16"/>
   <circle class="fil5" cx="1343" cy="2166" r="16"/>
   <circle class="fil5" cx="1381" cy="2166" r="16"/>
   <circle class="fil5" cx="1420" cy="2166" r="16"/>
  </g>
  <g id="u">
   <circle class="fil5" cx="139" cy="2117" r="16"/>
   <circle class="fil5" cx="178" cy="2117" r="16"/>
   <circle class="fil5" cx="216" cy="2117" r="16"/>
   <circle class="fil5" cx="255" cy="2117" r="16"/>
   <circle class="fil5" cx="293" cy="2117" r="16"/>
   <circle class="fil5" cx="332" cy="2117" r="16"/>
   <circle class="fil5" cx="371" cy="2117" r="16"/>
   <circle class="fil5" cx="409" cy="2117" r="16"/>
   <circle class="fil5" cx="448" cy="2117" r="16"/>
   <circle class="fil5" cx="486" cy="2117" r="16"/>
   <circle class="fil5" cx="1073" cy="2117" r="16"/>
   <circle class="fil5" cx="1111" cy="2117" r="16"/>
   <circle class="fil5" cx="1150" cy="2117" r="16"/>
   <circle class="fil5" cx="1188" cy="2117" r="16"/>
   <circle class="fil5" cx="1227" cy="2117" r="16"/>
   <circle class="fil5" cx="1266" cy="2117" r="16"/>
   <circle class="fil5" cx="1304" cy="2117" r="16"/>
   <circle class="fil5" cx="1343" cy="2117" r="16"/>
   <circle class="fil5" cx="1381" cy="2117" r="16"/>
   <circle class="fil5" cx="1420" cy="2117" r="16"/>
  </g>
  <g id="t">
   <circle class="fil4" cx="139" cy="2069" r="16"/>
   <circle class="fil4" cx="178" cy="2069" r="16"/>
   <circle class="fil4" cx="216" cy="2069" r="16"/>
   <circle class="fil4" cx="255" cy="2069" r="16"/>
   <circle class="fil4" cx="293" cy="2069" r="16"/>
   <circle class="fil4" cx="332" cy="2069" r="16"/>
   <circle class="fil4" cx="371" cy="2069" r="16"/>
   <circle class="fil4" cx="409" cy="2069" r="16"/>
   <circle class="fil4" cx="448" cy="2069" r="16"/>
   <circle class="fil4" cx="486" cy="2069" r="16"/>
   <circle class="fil4" cx="606" cy="2069" r="16"/>
   <circle class="fil4" cx="644" cy="2069" r="16"/>
   <circle class="fil4" cx="683" cy="2069" r="16"/>
   <circle class="fil4" cx="722" cy="2069" r="16"/>
   <circle class="fil4" cx="760" cy="2069" r="16"/>
   <circle class="fil4" cx="799" cy="2069" r="16"/>
   <circle class="fil4" cx="837" cy="2069" r="16"/>
   <circle class="fil4" cx="876" cy="2069" r="16"/>
   <circle class="fil4" cx="915" cy="2069" r="16"/>
   <circle class="fil4" cx="953" cy="2069" r="16"/>
   <circle class="fil4" cx="1073" cy="2069" r="16"/>
   <circle class="fil4" cx="1111" cy="2069" r="16"/>
   <circle class="fil4" cx="1150" cy="2069" r="16"/>
   <circle class="fil4" cx="1188" cy="2069" r="16"/>
   <circle class="fil4" cx="1227" cy="2069" r="16"/>
   <circle class="fil4" cx="1266" cy="2069" r="16"/>
   <circle class="fil4" cx="1304" cy="2069" r="16"/>
   <circle class="fil4" cx="1343" cy="2069" r="16"/>
   <circle class="fil4" cx="1381" cy="2069" r="16"/>
   <circle class="fil4" cx="1420" cy="2069" r="16"/>
  </g>
  <g id="s">
   <circle class="fil4" cx="139" cy="2021" r="16"/>
   <circle class="fil4" cx="178" cy="2021" r="16"/>
   <circle class="fil4" cx="216" cy="2021" r="16"/>
   <circle class="fil4" cx="255" cy="2021" r="16"/>
   <circle class="fil4" cx="293" cy="2021" r="16"/>
   <circle class="fil4" cx="332" cy="2021" r="16"/>
   <circle class="fil4" cx="371" cy="2021" r="16"/>
   <circle class="fil4" cx="409" cy="2021" r="16"/>
   <circle class="fil4" cx="448" cy="2021" r="16"/>
   <circle class="fil4" cx="486" cy="2021" r="16"/>
   <circle class="fil4" cx="606" cy="2021" r="16"/>
   <circle class="fil4" cx="644" cy="2021" r="16"/>
   <circle class="fil4" cx="683" cy="2021" r="16"/>
   <circle class="fil4" cx="722" cy="2021" r="16"/>
   <circle class="fil4" cx="760" cy="2021" r="16"/>
   <circle class="fil4" cx="799" cy="2021" r="16"/>
   <circle class="fil4" cx="837" cy="2021" r="16"/>
   <circle class="fil4" cx="876" cy="2021" r="16"/>
   <circle class="fil4" cx="915" cy="2021" r="16"/>
   <circle class="fil4" cx="953" cy="2021" r="16"/>
   <circle class="fil4" cx="1073" cy="2021" r="16"/>
   <circle class="fil4" cx="1111" cy="2021" r="16"/>
   <circle class="fil4" cx="1150" cy="2021" r="16"/>
   <circle class="fil4" cx="1188" cy="2021" r="16"/>
   <circle class="fil4" cx="1227" cy="2021" r="16"/>
   <circle class="fil4" cx="1266" cy="2021" r="16"/>
   <circle class="fil4" cx="1304" cy="2021" r="16"/>
   <circle class="fil4" cx="1343" cy="2021" r="16"/>
   <circle class="fil4" cx="1381" cy="2021" r="16"/>
   <circle class="fil4" cx="1420" cy="2021" r="16"/>
  </g>
  <g id="r">
   <circle class="fil4" cx="139" cy="1972" r="16"/>
   <circle class="fil4" cx="178" cy="1972" r="16"/>
   <circle class="fil4" cx="216" cy="1972" r="16"/>
   <circle class="fil4" cx="255" cy="1972" r="16"/>
   <circle class="fil4" cx="293" cy="1972" r="16"/>
   <circle class="fil4" cx="332" cy="1972" r="16"/>
   <circle class="fil4" cx="371" cy="1972" r="16"/>
   <circle class="fil4" cx="409" cy="1972" r="16"/>
   <circle class="fil4" cx="448" cy="1972" r="16"/>
   <circle class="fil4" cx="486" cy="1972" r="16"/>
   <circle class="fil4" cx="606" cy="1972" r="16"/>
   <circle class="fil4" cx="644" cy="1972" r="16"/>
   <circle class="fil4" cx="683" cy="1972" r="16"/>
   <circle class="fil4" cx="722" cy="1972" r="16"/>
   <circle class="fil4" cx="760" cy="1972" r="16"/>
   <circle class="fil4" cx="799" cy="1972" r="16"/>
   <circle class="fil4" cx="837" cy="1972" r="16"/>
   <circle class="fil4" cx="876" cy="1972" r="16"/>
   <circle class="fil4" cx="915" cy="1972" r="16"/>
   <circle class="fil4" cx="953" cy="1972" r="16"/>
   <circle class="fil4" cx="1073" cy="1972" r="16"/>
   <circle class="fil4" cx="1111" cy="1972" r="16"/>
   <circle class="fil4" cx="1150" cy="1972" r="16"/>
   <circle class="fil4" cx="1188" cy="1972" r="16"/>
   <circle class="fil4" cx="1227" cy="1972" r="16"/>
   <circle class="fil4" cx="1266" cy="1972" r="16"/>
   <circle class="fil4" cx="1304" cy="1972" r="16"/>
   <circle class="fil4" cx="1343" cy="1972" r="16"/>
   <circle class="fil4" cx="1381" cy="1972" r="16"/>
   <circle class="fil4" cx="1420" cy="1972" r="16"/>
  </g>
  <g id="q">
   <circle class="fil4" cx="139" cy="1924" r="16"/>
   <circle class="fil4" cx="178" cy="1924" r="16"/>
   <circle class="fil4" cx="216" cy="1924" r="16"/>
   <circle class="fil4" cx="255" cy="1924" r="16"/>
   <circle class="fil4" cx="293" cy="1924" r="16"/>
   <circle class="fil4" cx="332" cy="1924" r="16"/>
   <circle class="fil4" cx="371" cy="1924" r="16"/>
   <circle class="fil4" cx="409" cy="1924" r="16"/>
   <circle class="fil4" cx="448" cy="1924" r="16"/>
   <circle class="fil4" cx="486" cy="1924" r="16"/>
   <circle class="fil3" cx="606" cy="1924" r="16"/>
   <circle class="fil3" cx="644" cy="1924" r="16"/>
   <circle class="fil3" cx="683" cy="1924" r="16"/>
   <circle class="fil3" cx="722" cy="1924" r="16"/>
   <circle class="fil3" cx="760" cy="1924" r="16"/>
   <circle class="fil3" cx="799" cy="1924" r="16"/>
   <circle class="fil3" cx="837" cy="1924" r="16"/>
   <circle class="fil3" cx="876" cy="1924" r="16"/>
   <circle class="fil3" cx="915" cy="1924" r="16"/>
   <circle class="fil3" cx="953" cy="1924" r="16"/>
   <circle class="fil4" cx="1073" cy="1924" r="16"/>
   <circle class="fil4" cx="1111" cy="1924" r="16"/>
   <circle class="fil4" cx="1150" cy="1924" r="16"/>
   <circle class="fil4" cx="1188" cy="1924" r="16"/>
   <circle class="fil4" cx="1227" cy="1924" r="16"/>
   <circle class="fil4" cx="1266" cy="1924" r="16"/>
   <circle class="fil4" cx="1304" cy="1924" r="16"/>
   <circle class="fil4" cx="1343" cy="1924" r="16"/>
   <circle class="fil4" cx="1381" cy="1924" r="16"/>
   <circle class="fil4" cx="1420" cy="1924" r="16"/>
  </g>
  <g id="p">
   <circle class="fil4" cx="139" cy="1875" r="16"/>
   <circle class="fil4" cx="178" cy="1875" r="16"/>
   <circle class="fil4" cx="216" cy="1875" r="16"/>
   <circle class="fil4" cx="255" cy="1875" r="16"/>
   <circle class="fil4" cx="293" cy="1875" r="16"/>
   <circle class="fil4" cx="332" cy="1875" r="16"/>
   <circle class="fil4" cx="371" cy="1875" r="16"/>
   <circle class="fil4" cx="409" cy="1875" r="16"/>
   <circle class="fil4" cx="448" cy="1875" r="16"/>
   <circle class="fil4" cx="486" cy="1875" r="16"/>
   <circle class="fil3" cx="606" cy="1875" r="16"/>
   <circle class="fil3" cx="644" cy="1875" r="16"/>
   <circle class="fil3" cx="683" cy="1875" r="16"/>
   <circle class="fil3" cx="722" cy="1875" r="16"/>
   <circle class="fil3" cx="760" cy="1875" r="16"/>
   <circle class="fil3" cx="799" cy="1875" r="16"/>
   <circle class="fil3" cx="837" cy="1875" r="16"/>
   <circle class="fil3" cx="876" cy="1875" r="16"/>
   <circle class="fil3" cx="915" cy="1875" r="16"/>
   <circle class="fil3" cx="953" cy="1875" r="16"/>
   <circle class="fil4" cx="1073" cy="1875" r="16"/>
   <circle class="fil4" cx="1111" cy="1875" r="16"/>
   <circle class="fil4" cx="1150" cy="1875" r="16"/>
   <circle class="fil4" cx="1188" cy="1875" r="16"/>
   <circle class="fil4" cx="1227" cy="1875" r="16"/>
   <circle class="fil4" cx="1266" cy="1875" r="16"/>
   <circle class="fil4" cx="1304" cy="1875" r="16"/>
   <circle class="fil4" cx="1343" cy="1875" r="16"/>
   <circle class="fil4" cx="1381" cy="1875" r="16"/>
   <circle class="fil4" cx="1420" cy="1875" r="16"/>
  </g>
  <g id="n">
   <circle class="fil4" cx="139" cy="1827" r="16"/>
   <circle class="fil4" cx="178" cy="1827" r="16"/>
   <circle class="fil4" cx="216" cy="1827" r="16"/>
   <circle class="fil4" cx="255" cy="1827" r="16"/>
   <circle class="fil4" cx="293" cy="1827" r="16"/>
   <circle class="fil4" cx="332" cy="1827" r="16"/>
   <circle class="fil4" cx="371" cy="1827" r="16"/>
   <circle class="fil4" cx="409" cy="1827" r="16"/>
   <circle class="fil4" cx="448" cy="1827" r="16"/>
   <circle class="fil4" cx="486" cy="1827" r="16"/>
   <circle class="fil3" cx="606" cy="1827" r="16"/>
   <circle class="fil3" cx="644" cy="1827" r="16"/>
   <circle class="fil3" cx="683" cy="1827" r="16"/>
   <circle class="fil3" cx="722" cy="1827" r="16"/>
   <circle class="fil3" cx="760" cy="1827" r="16"/>
   <circle class="fil3" cx="799" cy="1827" r="16"/>
   <circle class="fil3" cx="837" cy="1827" r="16"/>
   <circle class="fil3" cx="876" cy="1827" r="16"/>
   <circle class="fil3" cx="915" cy="1827" r="16"/>
   <circle class="fil3" cx="953" cy="1827" r="16"/>
   <circle class="fil4" cx="1073" cy="1827" r="16"/>
   <circle class="fil4" cx="1111" cy="1827" r="16"/>
   <circle class="fil4" cx="1150" cy="1827" r="16"/>
   <circle class="fil4" cx="1188" cy="1827" r="16"/>
   <circle class="fil4" cx="1227" cy="1827" r="16"/>
   <circle class="fil4" cx="1266" cy="1827" r="16"/>
   <circle class="fil4" cx="1304" cy="1827" r="16"/>
   <circle class="fil4" cx="1343" cy="1827" r="16"/>
   <circle class="fil4" cx="1381" cy="1827" r="16"/>
   <circle class="fil4" cx="1420" cy="1827" r="16"/>
  </g>
  <g id="m">
   <circle class="fil4" cx="139" cy="1778" r="16"/>
   <circle class="fil4" cx="178" cy="1778" r="16"/>
   <circle class="fil4" cx="216" cy="1778" r="16"/>
   <circle class="fil4" cx="255" cy="1778" r="16"/>
   <circle class="fil4" cx="293" cy="1778" r="16"/>
   <circle class="fil4" cx="332" cy="1778" r="16"/>
   <circle class="fil4" cx="371" cy="1778" r="16"/>
   <circle class="fil4" cx="409" cy="1778" r="16"/>
   <circle class="fil4" cx="448" cy="1778" r="16"/>
   <circle class="fil4" cx="486" cy="1778" r="16"/>
   <circle class="fil3" cx="606" cy="1778" r="16"/>
   <circle class="fil3" cx="644" cy="1778" r="16"/>
   <circle class="fil3" cx="683" cy="1778" r="16"/>
   <circle class="fil3" cx="722" cy="1778" r="16"/>
   <circle class="fil3" cx="760" cy="1778" r="16"/>
   <circle class="fil3" cx="799" cy="1778" r="16"/>
   <circle class="fil3" cx="837" cy="1778" r="16"/>
   <circle class="fil3" cx="876" cy="1778" r="16"/>
   <circle class="fil3" cx="915" cy="1778" r="16"/>
   <circle class="fil3" cx="953" cy="1778" r="16"/>
   <circle class="fil4" cx="1073" cy="1778" r="16"/>
   <circle class="fil4" cx="1111" cy="1778" r="16"/>
   <circle class="fil4" cx="1150" cy="1778" r="16"/>
   <circle class="fil4" cx="1188" cy="1778" r="16"/>
   <circle class="fil4" cx="1227" cy="1778" r="16"/>
   <circle class="fil4" cx="1266" cy="1778" r="16"/>
   <circle class="fil4" cx="1304" cy="1778" r="16"/>
   <circle class="fil4" cx="1343" cy="1778" r="16"/>
   <circle class="fil4" cx="1381" cy="1778" r="16"/>
   <circle class="fil4" cx="1420" cy="1778" r="16"/>
  </g>
  <g id="l">
   <circle class="fil4" cx="139" cy="1730" r="16"/>
   <circle class="fil4" cx="178" cy="1730" r="16"/>
   <circle class="fil4" cx="216" cy="1730" r="16"/>
   <circle class="fil4" cx="255" cy="1730" r="16"/>
   <circle class="fil4" cx="293" cy="1730" r="16"/>
   <circle class="fil4" cx="332" cy="1730" r="16"/>
   <circle class="fil4" cx="371" cy="1730" r="16"/>
   <circle class="fil4" cx="409" cy="1730" r="16"/>
   <circle class="fil4" cx="448" cy="1730" r="16"/>
   <circle class="fil4" cx="486" cy="1730" r="16"/>
   <circle class="fil3" cx="606" cy="1730" r="16"/>
   <circle class="fil3" cx="644" cy="1730" r="16"/>
   <circle class="fil3" cx="683" cy="1730" r="16"/>
   <circle class="fil3" cx="722" cy="1730" r="16"/>
   <circle class="fil3" cx="760" cy="1730" r="16"/>
   <circle class="fil3" cx="799" cy="1730" r="16"/>
   <circle class="fil3" cx="837" cy="1730" r="16"/>
   <circle class="fil3" cx="876" cy="1730" r="16"/>
   <circle class="fil3" cx="915" cy="1730" r="16"/>
   <circle class="fil3" cx="953" cy="1730" r="16"/>
   <circle class="fil4" cx="1073" cy="1730" r="16"/>
   <circle class="fil4" cx="1111" cy="1730" r="16"/>
   <circle class="fil4" cx="1150" cy="1730" r="16"/>
   <circle class="fil4" cx="1188" cy="1730" r="16"/>
   <circle class="fil4" cx="1227" cy="1730" r="16"/>
   <circle class="fil4" cx="1266" cy="1730" r="16"/>
   <circle class="fil4" cx="1304" cy="1730" r="16"/>
   <circle class="fil4" cx="1343" cy="1730" r="16"/>
   <circle class="fil4" cx="1381" cy="1730" r="16"/>
   <circle class="fil4" cx="1420" cy="1730" r="16"/>
  </g>
  <g id="k">
   <circle class="fil3" cx="139" cy="1623" r="16"/>
   <circle class="fil3" cx="178" cy="1623" r="16"/>
   <circle class="fil3" cx="216" cy="1623" r="16"/>
   <circle class="fil3" cx="255" cy="1623" r="16"/>
   <circle class="fil3" cx="293" cy="1623" r="16"/>
   <circle class="fil3" cx="332" cy="1623" r="16"/>
   <circle class="fil3" cx="371" cy="1623" r="16"/>
   <circle class="fil3" cx="409" cy="1623" r="16"/>
   <circle class="fil3" cx="448" cy="1623" r="16"/>
   <circle class="fil3" cx="486" cy="1623" r="16"/>
   <circle class="fil2" cx="606" cy="1623" r="16"/>
   <circle class="fil2" cx="644" cy="1623" r="16"/>
   <circle class="fil2" cx="683" cy="1623" r="16"/>
   <circle class="fil2" cx="722" cy="1623" r="16"/>
   <circle class="fil2" cx="760" cy="1623" r="16"/>
   <circle class="fil2" cx="799" cy="1623" r="16"/>
   <circle class="fil2" cx="837" cy="1623" r="16"/>
   <circle class="fil2" cx="876" cy="1623" r="16"/>
   <circle class="fil2" cx="915" cy="1623" r="16"/>
   <circle class="fil2" cx="953" cy="1623" r="16"/>
   <circle class="fil3" cx="1073" cy="1623" r="16"/>
   <circle class="fil3" cx="1111" cy="1623" r="16"/>
   <circle class="fil3" cx="1150" cy="1623" r="16"/>
   <circle class="fil3" cx="1188" cy="1623" r="16"/>
   <circle class="fil3" cx="1227" cy="1623" r="16"/>
   <circle class="fil3" cx="1266" cy="1623" r="16"/>
   <circle class="fil3" cx="1304" cy="1623" r="16"/>
   <circle class="fil3" cx="1343" cy="1623" r="16"/>
   <circle class="fil3" cx="1381" cy="1623" r="16"/>
   <circle class="fil3" cx="1420" cy="1623" r="16"/>
  </g>
  <g id="j">
   <circle class="fil3" cx="139" cy="1574" r="16"/>
   <circle class="fil3" cx="178" cy="1574" r="16"/>
   <circle class="fil3" cx="216" cy="1574" r="16"/>
   <circle class="fil3" cx="255" cy="1574" r="16"/>
   <circle class="fil3" cx="293" cy="1574" r="16"/>
   <circle class="fil3" cx="332" cy="1574" r="16"/>
   <circle class="fil3" cx="371" cy="1574" r="16"/>
   <circle class="fil3" cx="409" cy="1574" r="16"/>
   <circle class="fil3" cx="448" cy="1574" r="16"/>
   <circle class="fil3" cx="486" cy="1574" r="16"/>
   <circle class="fil2" cx="606" cy="1574" r="16"/>
   <circle class="fil2" cx="644" cy="1574" r="16"/>
   <circle class="fil2" cx="683" cy="1574" r="16"/>
   <circle class="fil2" cx="722" cy="1574" r="16"/>
   <circle class="fil2" cx="760" cy="1574" r="16"/>
   <circle class="fil2" cx="799" cy="1574" r="16"/>
   <circle class="fil2" cx="837" cy="1574" r="16"/>
   <circle class="fil2" cx="876" cy="1574" r="16"/>
   <circle class="fil2" cx="915" cy="1574" r="16"/>
   <circle class="fil2" cx="953" cy="1574" r="16"/>
   <circle class="fil3" cx="1073" cy="1574" r="16"/>
   <circle class="fil3" cx="1111" cy="1574" r="16"/>
   <circle class="fil3" cx="1150" cy="1574" r="16"/>
   <circle class="fil3" cx="1188" cy="1574" r="16"/>
   <circle class="fil3" cx="1227" cy="1574" r="16"/>
   <circle class="fil3" cx="1266" cy="1574" r="16"/>
   <circle class="fil3" cx="1304" cy="1574" r="16"/>
   <circle class="fil3" cx="1343" cy="1574" r="16"/>
   <circle class="fil3" cx="1381" cy="1574" r="16"/>
   <circle class="fil3" cx="1420" cy="1574" r="16"/>
  </g>
  <g id="h">
   <circle class="fil3" cx="139" cy="1526" r="16"/>
   <circle class="fil3" cx="178" cy="1526" r="16"/>
   <circle class="fil3" cx="216" cy="1526" r="16"/>
   <circle class="fil3" cx="255" cy="1526" r="16"/>
   <circle class="fil3" cx="293" cy="1526" r="16"/>
   <circle class="fil3" cx="332" cy="1526" r="16"/>
   <circle class="fil3" cx="371" cy="1526" r="16"/>
   <circle class="fil3" cx="409" cy="1526" r="16"/>
   <circle class="fil3" cx="448" cy="1526" r="16"/>
   <circle class="fil3" cx="486" cy="1526" r="16"/>
   <circle class="fil2" cx="606" cy="1526" r="16"/>
   <circle class="fil2" cx="644" cy="1526" r="16"/>
   <circle class="fil2" cx="683" cy="1526" r="16"/>
   <circle class="fil2" cx="722" cy="1526" r="16"/>
   <circle class="fil2" cx="760" cy="1526" r="16"/>
   <circle class="fil2" cx="799" cy="1526" r="16"/>
   <circle class="fil2" cx="837" cy="1526" r="16"/>
   <circle class="fil2" cx="876" cy="1526" r="16"/>
   <circle class="fil2" cx="915" cy="1526" r="16"/>
   <circle class="fil2" cx="953" cy="1526" r="16"/>
   <circle class="fil3" cx="1073" cy="1526" r="16"/>
   <circle class="fil3" cx="1111" cy="1526" r="16"/>
   <circle class="fil3" cx="1150" cy="1526" r="16"/>
   <circle class="fil3" cx="1188" cy="1526" r="16"/>
   <circle class="fil3" cx="1227" cy="1526" r="16"/>
   <circle class="fil3" cx="1266" cy="1526" r="16"/>
   <circle class="fil3" cx="1304" cy="1526" r="16"/>
   <circle class="fil3" cx="1343" cy="1526" r="16"/>
   <circle class="fil3" cx="1381" cy="1526" r="16"/>
   <circle class="fil3" cx="1420" cy="1526" r="16"/>
  </g>
  <g id="g">
   <circle class="fil3" cx="139" cy="1477" r="16"/>
   <circle class="fil3" cx="178" cy="1477" r="16"/>
   <circle class="fil3" cx="216" cy="1477" r="16"/>
   <circle class="fil3" cx="255" cy="1477" r="16"/>
   <circle class="fil3" cx="293" cy="1477" r="16"/>
   <circle class="fil3" cx="332" cy="1477" r="16"/>
   <circle class="fil3" cx="371" cy="1477" r="16"/>
   <circle class="fil3" cx="409" cy="1477" r="16"/>
   <circle class="fil3" cx="448" cy="1477" r="16"/>
   <circle class="fil3" cx="486" cy="1477" r="16"/>
   <circle class="fil2" cx="606" cy="1477" r="16"/>
   <circle class="fil2" cx="644" cy="1477" r="16"/>
   <circle class="fil2" cx="683" cy="1477" r="16"/>
   <circle class="fil2" cx="722" cy="1477" r="16"/>
   <circle class="fil2" cx="760" cy="1477" r="16"/>
   <circle class="fil2" cx="799" cy="1477" r="16"/>
   <circle class="fil2" cx="837" cy="1477" r="16"/>
   <circle class="fil2" cx="876" cy="1477" r="16"/>
   <circle class="fil2" cx="915" cy="1477" r="16"/>
   <circle class="fil2" cx="953" cy="1477" r="16"/>
   <circle class="fil3" cx="1073" cy="1477" r="16"/>
   <circle class="fil3" cx="1111" cy="1477" r="16"/>
   <circle class="fil3" cx="1150" cy="1477" r="16"/>
   <circle class="fil3" cx="1188" cy="1477" r="16"/>
   <circle class="fil3" cx="1227" cy="1477" r="16"/>
   <circle class="fil3" cx="1266" cy="1477" r="16"/>
   <circle class="fil3" cx="1304" cy="1477" r="16"/>
   <circle class="fil3" cx="1343" cy="1477" r="16"/>
   <circle class="fil3" cx="1381" cy="1477" r="16"/>
   <circle class="fil3" cx="1420" cy="1477" r="16"/>
  </g>
  <g id="f">
   <circle class="fil3" cx="139" cy="1429" r="16"/>
   <circle class="fil3" cx="178" cy="1429" r="16"/>
   <circle class="fil3" cx="216" cy="1429" r="16"/>
   <circle class="fil3" cx="255" cy="1429" r="16"/>
   <circle class="fil3" cx="293" cy="1429" r="16"/>
   <circle class="fil3" cx="332" cy="1429" r="16"/>
   <circle class="fil3" cx="371" cy="1429" r="16"/>
   <circle class="fil3" cx="409" cy="1429" r="16"/>
   <circle class="fil3" cx="448" cy="1429" r="16"/>
   <circle class="fil3" cx="486" cy="1429" r="16"/>
   <circle class="fil2" cx="606" cy="1429" r="16"/>
   <circle class="fil2" cx="644" cy="1429" r="16"/>
   <circle class="fil2" cx="683" cy="1429" r="16"/>
   <circle class="fil2" cx="722" cy="1429" r="16"/>
   <circle class="fil2" cx="760" cy="1429" r="16"/>
   <circle class="fil2" cx="799" cy="1429" r="16"/>
   <circle class="fil2" cx="837" cy="1429" r="16"/>
   <circle class="fil2" cx="876" cy="1429" r="16"/>
   <circle class="fil2" cx="915" cy="1429" r="16"/>
   <circle class="fil2" cx="953" cy="1429" r="16"/>
   <circle class="fil3" cx="1073" cy="1429" r="16"/>
   <circle class="fil3" cx="1111" cy="1429" r="16"/>
   <circle class="fil3" cx="1150" cy="1429" r="16"/>
   <circle class="fil3" cx="1188" cy="1429" r="16"/>
   <circle class="fil3" cx="1227" cy="1429" r="16"/>
   <circle class="fil3" cx="1266" cy="1429" r="16"/>
   <circle class="fil3" cx="1304" cy="1429" r="16"/>
   <circle class="fil3" cx="1343" cy="1429" r="16"/>
   <circle class="fil3" cx="1381" cy="1429" r="16"/>
   <circle class="fil3" cx="1420" cy="1429" r="16"/>
  </g>
  <g id="e">
   <circle class="fil2" cx="139" cy="1381" r="16"/>
   <circle class="fil2" cx="178" cy="1381" r="16"/>
   <circle class="fil2" cx="216" cy="1381" r="16"/>
   <circle class="fil2" cx="255" cy="1381" r="16"/>
   <circle class="fil2" cx="293" cy="1381" r="16"/>
   <circle class="fil2" cx="332" cy="1381" r="16"/>
   <circle class="fil2" cx="371" cy="1381" r="16"/>
   <circle class="fil2" cx="409" cy="1381" r="16"/>
   <circle class="fil2" cx="448" cy="1381" r="16"/>
   <circle class="fil2" cx="486" cy="1381" r="16"/>
   <circle class="fil2" cx="606" cy="1381" r="16"/>
   <circle class="fil2" cx="644" cy="1381" r="16"/>
   <circle class="fil2" cx="683" cy="1381" r="16"/>
   <circle class="fil2" cx="722" cy="1381" r="16"/>
   <circle class="fil2" cx="760" cy="1381" r="16"/>
   <circle class="fil2" cx="799" cy="1381" r="16"/>
   <circle class="fil2" cx="837" cy="1381" r="16"/>
   <circle class="fil2" cx="876" cy="1381" r="16"/>
   <circle class="fil2" cx="915" cy="1381" r="16"/>
   <circle class="fil2" cx="953" cy="1381" r="16"/>
   <circle class="fil2" cx="1073" cy="1381" r="16"/>
   <circle class="fil2" cx="1111" cy="1381" r="16"/>
   <circle class="fil2" cx="1150" cy="1381" r="16"/>
   <circle class="fil2" cx="1188" cy="1381" r="16"/>
   <circle class="fil2" cx="1227" cy="1381" r="16"/>
   <circle class="fil2" cx="1266" cy="1381" r="16"/>
   <circle class="fil2" cx="1304" cy="1381" r="16"/>
   <circle class="fil2" cx="1343" cy="1381" r="16"/>
   <circle class="fil2" cx="1381" cy="1381" r="16"/>
   <circle class="fil2" cx="1420" cy="1381" r="16"/>
  </g>
  <g id="d">
   <circle class="fil2" cx="139" cy="1332" r="16"/>
   <circle class="fil2" cx="178" cy="1332" r="16"/>
   <circle class="fil2" cx="216" cy="1332" r="16"/>
   <circle class="fil2" cx="255" cy="1332" r="16"/>
   <circle class="fil2" cx="293" cy="1332" r="16"/>
   <circle class="fil2" cx="332" cy="1332" r="16"/>
   <circle class="fil2" cx="371" cy="1332" r="16"/>
   <circle class="fil2" cx="409" cy="1332" r="16"/>
   <circle class="fil2" cx="448" cy="1332" r="16"/>
   <circle class="fil2" cx="486" cy="1332" r="16"/>
   <circle class="fil2" cx="606" cy="1332" r="16"/>
   <circle class="fil2" cx="644" cy="1332" r="16"/>
   <circle class="fil2" cx="683" cy="1332" r="16"/>
   <circle class="fil2" cx="722" cy="1332" r="16"/>
   <circle class="fil2" cx="760" cy="1332" r="16"/>
   <circle class="fil2" cx="799" cy="1332" r="16"/>
   <circle class="fil2" cx="837" cy="1332" r="16"/>
   <circle class="fil2" cx="876" cy="1332" r="16"/>
   <circle class="fil2" cx="915" cy="1332" r="16"/>
   <circle class="fil2" cx="953" cy="1332" r="16"/>
   <circle class="fil2" cx="1073" cy="1332" r="16"/>
   <circle class="fil2" cx="1111" cy="1332" r="16"/>
   <circle class="fil2" cx="1150" cy="1332" r="16"/>
   <circle class="fil2" cx="1188" cy="1332" r="16"/>
   <circle class="fil2" cx="1227" cy="1332" r="16"/>
   <circle class="fil2" cx="1266" cy="1332" r="16"/>
   <circle class="fil2" cx="1304" cy="1332" r="16"/>
   <circle class="fil2" cx="1343" cy="1332" r="16"/>
   <circle class="fil2" cx="1381" cy="1332" r="16"/>
   <circle class="fil2" cx="1420" cy="1332" r="16"/>
  </g>
  <g id="c">
   <circle class="fil2" cx="139" cy="1284" r="16"/>
   <circle class="fil2" cx="178" cy="1284" r="16"/>
   <circle class="fil2" cx="216" cy="1284" r="16"/>
   <circle class="fil2" cx="255" cy="1284" r="16"/>
   <circle class="fil2" cx="293" cy="1284" r="16"/>
   <circle class="fil2" cx="332" cy="1284" r="16"/>
   <circle class="fil2" cx="371" cy="1284" r="16"/>
   <circle class="fil2" cx="409" cy="1284" r="16"/>
   <circle class="fil2" cx="448" cy="1284" r="16"/>
   <circle class="fil2" cx="486" cy="1284" r="16"/>
   <circle class="fil2" cx="606" cy="1284" r="16"/>
   <circle class="fil2" cx="644" cy="1284" r="16"/>
   <circle class="fil2" cx="683" cy="1284" r="16"/>
   <circle class="fil2" cx="722" cy="1284" r="16"/>
   <circle class="fil2" cx="760" cy="1284" r="16"/>
   <circle class="fil2" cx="799" cy="1284" r="16"/>
   <circle class="fil2" cx="837" cy="1284" r="16"/>
   <circle class="fil2" cx="876" cy="1284" r="16"/>
   <circle class="fil2" cx="915" cy="1284" r="16"/>
   <circle class="fil2" cx="953" cy="1284" r="16"/>
   <circle class="fil2" cx="1073" cy="1284" r="16"/>
   <circle class="fil2" cx="1111" cy="1284" r="16"/>
   <circle class="fil2" cx="1150" cy="1284" r="16"/>
   <circle class="fil2" cx="1188" cy="1284" r="16"/>
   <circle class="fil2" cx="1227" cy="1284" r="16"/>
   <circle class="fil2" cx="1266" cy="1284" r="16"/>
   <circle class="fil2" cx="1304" cy="1284" r="16"/>
   <circle class="fil2" cx="1343" cy="1284" r="16"/>
   <circle class="fil2" cx="1381" cy="1284" r="16"/>
   <circle class="fil2" cx="1420" cy="1284" r="16"/>
  </g>
  <g id="b">
   <circle class="fil2" cx="139" cy="1235" r="16"/>
   <circle class="fil2" cx="178" cy="1235" r="16"/>
   <circle class="fil2" cx="216" cy="1235" r="16"/>
   <circle class="fil2" cx="255" cy="1235" r="16"/>
   <circle class="fil2" cx="293" cy="1235" r="16"/>
   <circle class="fil2" cx="332" cy="1235" r="16"/>
   <circle class="fil2" cx="371" cy="1235" r="16"/>
   <circle class="fil2" cx="409" cy="1235" r="16"/>
   <circle class="fil2" cx="448" cy="1235" r="16"/>
   <circle class="fil2" cx="486" cy="1235" r="16"/>
   <circle class="fil2" cx="606" cy="1235" r="16"/>
   <circle class="fil2" cx="644" cy="1235" r="16"/>
   <circle class="fil2" cx="683" cy="1235" r="16"/>
   <circle class="fil2" cx="722" cy="1235" r="16"/>
   <circle class="fil2" cx="760" cy="1235" r="16"/>
   <circle class="fil2" cx="799" cy="1235" r="16"/>
   <circle class="fil2" cx="837" cy="1235" r="16"/>
   <circle class="fil2" cx="876" cy="1235" r="16"/>
   <circle class="fil2" cx="915" cy="1235" r="16"/>
   <circle class="fil2" cx="953" cy="1235" r="16"/>
   <circle class="fil2" cx="1073" cy="1235" r="16"/>
   <circle class="fil2" cx="1111" cy="1235" r="16"/>
   <circle class="fil2" cx="1150" cy="1235" r="16"/>
   <circle class="fil2" cx="1188" cy="1235" r="16"/>
   <circle class="fil2" cx="1227" cy="1235" r="16"/>
   <circle class="fil2" cx="1266" cy="1235" r="16"/>
   <circle class="fil2" cx="1304" cy="1235" r="16"/>
   <circle class="fil2" cx="1343" cy="1235" r="16"/>
   <circle class="fil2" cx="1381" cy="1235" r="16"/>
   <circle class="fil2" cx="1420" cy="1235" r="16"/>
  </g>
  <g id="a">
   <circle class="fil2" cx="139" cy="1187" r="16"/>
   <circle class="fil2" cx="178" cy="1187" r="16"/>
   <circle class="fil2" cx="216" cy="1187" r="16"/>
   <circle class="fil2" cx="255" cy="1187" r="16"/>
   <circle class="fil2" cx="293" cy="1187" r="16"/>
   <circle class="fil2" cx="332" cy="1187" r="16"/>
   <circle class="fil2" cx="371" cy="1187" r="16"/>
   <circle class="fil2" cx="409" cy="1187" r="16"/>
   <circle class="fil2" cx="448" cy="1187" r="16"/>
   <circle class="fil2" cx="486" cy="1187" r="16"/>
   <circle class="fil2" cx="606" cy="1187" r="16"/>
   <circle class="fil2" cx="644" cy="1187" r="16"/>
   <circle class="fil2" cx="683" cy="1187" r="16"/>
   <circle class="fil2" cx="722" cy="1187" r="16"/>
   <circle class="fil2" cx="760" cy="1187" r="16"/>
   <circle class="fil2" cx="799" cy="1187" r="16"/>
   <circle class="fil2" cx="837" cy="1187" r="16"/>
   <circle class="fil2" cx="876" cy="1187" r="16"/>
   <circle class="fil2" cx="915" cy="1187" r="16"/>
   <circle class="fil2" cx="953" cy="1187" r="16"/>
   <circle class="fil2" cx="1073" cy="1187" r="16"/>
   <circle class="fil2" cx="1111" cy="1187" r="16"/>
   <circle class="fil2" cx="1150" cy="1187" r="16"/>
   <circle class="fil2" cx="1188" cy="1187" r="16"/>
   <circle class="fil2" cx="1227" cy="1187" r="16"/>
   <circle class="fil2" cx="1266" cy="1187" r="16"/>
   <circle class="fil2" cx="1304" cy="1187" r="16"/>
   <circle class="fil2" cx="1343" cy="1187" r="16"/>
   <circle class="fil2" cx="1381" cy="1187" r="16"/>
   <circle class="fil2" cx="1420" cy="1187" r="16"/>
  </g>
  <g id="svip.e6">
   <circle class="fil1" cx="1295" cy="887" r="16"/>
   <circle class="fil1" cx="1306" cy="920" r="16"/>
   <circle class="fil1" cx="1329" cy="946" r="16"/>
   <circle class="fil1" cx="1360" cy="960" r="16"/>
   <circle class="fil1" cx="1395" cy="960" r="16"/>
   <circle class="fil1" cx="1427" cy="947" r="16"/>
   <circle class="fil1" cx="1451" cy="922" r="16"/>
   <circle class="fil1" cx="1463" cy="889" r="16"/>
  </g>
  <g id="svip.e5">
   <circle class="fil1" cx="1058" cy="887" r="16"/>
   <circle class="fil1" cx="1069" cy="920" r="16"/>
   <circle class="fil1" cx="1092" cy="946" r="16"/>
   <circle class="fil1" cx="1124" cy="960" r="16"/>
   <circle class="fil1" cx="1158" cy="960" r="16"/>
   <circle class="fil1" cx="1190" cy="947" r="16"/>
   <circle class="fil1" cx="1214" cy="922" r="16"/>
   <circle class="fil1" cx="1226" cy="889" r="16"/>
  </g>
  <g id="svip.e4">
   <circle class="fil1" cx="816" cy="887" r="16"/>
   <circle class="fil1" cx="827" cy="920" r="16"/>
   <circle class="fil1" cx="850" cy="946" r="16"/>
   <circle class="fil1" cx="882" cy="960" r="16"/>
   <circle class="fil1" cx="917" cy="960" r="16"/>
   <circle class="fil1" cx="948" cy="947" r="16"/>
   <circle class="fil1" cx="972" cy="922" r="16"/>
   <circle class="fil1" cx="984" cy="889" r="16"/>
  </g>
  <g id="svip.e3">
   <circle class="fil1" cx="574" cy="887" r="16"/>
   <circle class="fil1" cx="585" cy="920" r="16"/>
   <circle class="fil1" cx="608" cy="946" r="16"/>
   <circle class="fil1" cx="640" cy="960" r="16"/>
   <circle class="fil1" cx="675" cy="960" r="16"/>
   <circle class="fil1" cx="707" cy="947" r="16"/>
   <circle class="fil1" cx="730" cy="922" r="16"/>
   <circle class="fil1" cx="742" cy="889" r="16"/>
  </g>
  <g id="svip.e2">
   <circle class="fil1" cx="334" cy="887" r="16"/>
   <circle class="fil1" cx="345" cy="920" r="16"/>
   <circle class="fil1" cx="368" cy="946" r="16"/>
   <circle class="fil1" cx="400" cy="960" r="16"/>
   <circle class="fil1" cx="434" cy="960" r="16"/>
   <circle class="fil1" cx="466" cy="947" r="16"/>
   <circle class="fil1" cx="490" cy="922" r="16"/>
   <circle class="fil1" cx="502" cy="889" r="16"/>
  </g>
  <g id="svip.e1">
   <circle class="fil1" cx="93" cy="887" r="16"/>
   <circle class="fil1" cx="104" cy="920" r="16"/>
   <circle class="fil1" cx="127" cy="946" r="16"/>
   <circle class="fil1" cx="159" cy="960" r="16"/>
   <circle class="fil1" cx="193" cy="960" r="16"/>
   <circle class="fil1" cx="225" cy="947" r="16"/>
   <circle class="fil1" cx="249" cy="922" r="16"/>
   <circle class="fil1" cx="261" cy="889" r="16"/>
  </g>
  <g id="svip.d6">
   <circle class="fil1" cx="1310" cy="719" r="16"/>
   <circle class="fil1" cx="1321" cy="752" r="16"/>
   <circle class="fil1" cx="1344" cy="778" r="16"/>
   <circle class="fil1" cx="1375" cy="792" r="16"/>
   <circle class="fil1" cx="1410" cy="793" r="16"/>
   <circle class="fil1" cx="1442" cy="779" r="16"/>
   <circle class="fil1" cx="1466" cy="754" r="16"/>
   <circle class="fil1" cx="1478" cy="721" r="16"/>
  </g>
  <g id="svip.d5">
   <circle class="fil1" cx="1065" cy="719" r="16"/>
   <circle class="fil1" cx="1076" cy="752" r="16"/>
   <circle class="fil1" cx="1099" cy="778" r="16"/>
   <circle class="fil1" cx="1131" cy="792" r="16"/>
   <circle class="fil1" cx="1165" cy="793" r="16"/>
   <circle class="fil1" cx="1197" cy="779" r="16"/>
   <circle class="fil1" cx="1221" cy="754" r="16"/>
   <circle class="fil1" cx="1233" cy="721" r="16"/>
  </g>
  <g id="svip.d4">
   <circle class="fil1" cx="820" cy="719" r="16"/>
   <circle class="fil1" cx="831" cy="752" r="16"/>
   <circle class="fil1" cx="854" cy="778" r="16"/>
   <circle class="fil1" cx="886" cy="792" r="16"/>
   <circle class="fil1" cx="921" cy="793" r="16"/>
   <circle class="fil1" cx="952" cy="779" r="16"/>
   <circle class="fil1" cx="976" cy="754" r="16"/>
   <circle class="fil1" cx="988" cy="721" r="16"/>
  </g>
  <g id="svip.d3">
   <circle class="fil1" cx="574" cy="719" r="16"/>
   <circle class="fil1" cx="585" cy="752" r="16"/>
   <circle class="fil1" cx="608" cy="778" r="16"/>
   <circle class="fil1" cx="640" cy="792" r="16"/>
   <circle class="fil1" cx="675" cy="793" r="16"/>
   <circle class="fil1" cx="707" cy="779" r="16"/>
   <circle class="fil1" cx="730" cy="754" r="16"/>
   <circle class="fil1" cx="742" cy="721" r="16"/>
  </g>
  <g id="svip.d2">
   <circle class="fil1" cx="330" cy="719" r="16"/>
   <circle class="fil1" cx="341" cy="752" r="16"/>
   <circle class="fil1" cx="365" cy="778" r="16"/>
   <circle class="fil1" cx="396" cy="792" r="16"/>
   <circle class="fil1" cx="431" cy="793" r="16"/>
   <circle class="fil1" cx="463" cy="779" r="16"/>
   <circle class="fil1" cx="487" cy="754" r="16"/>
   <circle class="fil1" cx="498" cy="721" r="16"/>
  </g>
  <g id="svip.d1">
   <circle class="fil1" cx="85" cy="719" r="16"/>
   <circle class="fil1" cx="96" cy="752" r="16"/>
   <circle class="fil1" cx="119" cy="778" r="16"/>
   <circle class="fil1" cx="151" cy="792" r="16"/>
   <circle class="fil1" cx="186" cy="793" r="16"/>
   <circle class="fil1" cx="218" cy="779" r="16"/>
   <circle class="fil1" cx="241" cy="754" r="16"/>
   <circle class="fil1" cx="253" cy="721" r="16"/>
  </g>
  <g id="lux.c5">
   <circle class="fil0" cx="1189" cy="583" r="16"/>
   <circle class="fil0" cx="1200" cy="615" r="16"/>
   <circle class="fil0" cx="1223" cy="641" r="16"/>
   <circle class="fil0" cx="1255" cy="655" r="16"/>
   <circle class="fil0" cx="1289" cy="656" r="16"/>
   <circle class="fil0" cx="1321" cy="642" r="16"/>
   <circle class="fil0" cx="1345" cy="617" r="16"/>
   <circle class="fil0" cx="1357" cy="584" r="16"/>
  </g>
  <g id="lux.c4">
   <circle class="fil0" cx="936" cy="583" r="16"/>
   <circle class="fil0" cx="947" cy="615" r="16"/>
   <circle class="fil0" cx="970" cy="641" r="16"/>
   <circle class="fil0" cx="1002" cy="655" r="16"/>
   <circle class="fil0" cx="1036" cy="656" r="16"/>
   <circle class="fil0" cx="1068" cy="642" r="16"/>
   <circle class="fil0" cx="1092" cy="617" r="16"/>
   <circle class="fil0" cx="1104" cy="584" r="16"/>
  </g>
  <g id="lux.c3">
   <circle class="fil0" cx="683" cy="583" r="16"/>
   <circle class="fil0" cx="694" cy="616" r="16"/>
   <circle class="fil0" cx="717" cy="642" r="16"/>
   <circle class="fil0" cx="748" cy="656" r="16"/>
   <circle class="fil0" cx="783" cy="656" r="16"/>
   <circle class="fil0" cx="815" cy="643" r="16"/>
   <circle class="fil0" cx="839" cy="618" r="16"/>
   <circle class="fil0" cx="851" cy="585" r="16"/>
  </g>
  <g id="lux.c2">
   <circle class="fil0" cx="429" cy="583" r="16"/>
   <circle class="fil0" cx="440" cy="616" r="16"/>
   <circle class="fil0" cx="464" cy="642" r="16"/>
   <circle class="fil0" cx="495" cy="656" r="16"/>
   <circle class="fil0" cx="530" cy="656" r="16"/>
   <circle class="fil0" cx="562" cy="643" r="16"/>
   <circle class="fil0" cx="586" cy="618" r="16"/>
   <circle class="fil0" cx="597" cy="585" r="16"/>
  </g>
  <g id="lux.c1">
   <circle class="fil0" cx="176" cy="583" r="16"/>
   <circle class="fil0" cx="187" cy="615" r="16"/>
   <circle class="fil0" cx="210" cy="641" r="16"/>
   <circle class="fil0" cx="242" cy="655" r="16"/>
   <circle class="fil0" cx="276" cy="656" r="16"/>
   <circle class="fil0" cx="308" cy="642" r="16"/>
   <circle class="fil0" cx="332" cy="617" r="16"/>
   <circle class="fil0" cx="344" cy="584" r="16"/>
  </g>
  <g id="lux.b5">
   <circle class="fil0" cx="1303" cy="435" r="16"/>
   <circle class="fil0" cx="1314" cy="468" r="16"/>
   <circle class="fil0" cx="1337" cy="493" r="16"/>
   <circle class="fil0" cx="1369" cy="508" r="16"/>
   <circle class="fil0" cx="1403" cy="508" r="16"/>
   <circle class="fil0" cx="1435" cy="494" r="16"/>
   <circle class="fil0" cx="1459" cy="469" r="16"/>
   <circle class="fil0" cx="1471" cy="437" r="16"/>
  </g>
  <g id="lux.b4">
   <circle class="fil0" cx="1050" cy="435" r="16"/>
   <circle class="fil0" cx="1061" cy="468" r="16"/>
   <circle class="fil0" cx="1084" cy="494" r="16"/>
   <circle class="fil0" cx="1116" cy="508" r="16"/>
   <circle class="fil0" cx="1150" cy="508" r="16"/>
   <circle class="fil0" cx="1182" cy="495" r="16"/>
   <circle class="fil0" cx="1206" cy="470" r="16"/>
   <circle class="fil0" cx="1218" cy="437" r="16"/>
  </g>
  <g id="lux.b3">
   <circle class="fil0" cx="797" cy="436" r="16"/>
   <circle class="fil0" cx="808" cy="469" r="16"/>
   <circle class="fil0" cx="831" cy="494" r="16"/>
   <circle class="fil0" cx="862" cy="509" r="16"/>
   <circle class="fil0" cx="897" cy="509" r="16"/>
   <circle class="fil0" cx="929" cy="495" r="16"/>
   <circle class="fil0" cx="953" cy="470" r="16"/>
   <circle class="fil0" cx="965" cy="438" r="16"/>
  </g>
  <g id="lux.b2">
   <circle class="fil0" cx="544" cy="435" r="16"/>
   <circle class="fil0" cx="555" cy="468" r="16"/>
   <circle class="fil0" cx="578" cy="494" r="16"/>
   <circle class="fil0" cx="609" cy="508" r="16"/>
   <circle class="fil0" cx="644" cy="508" r="16"/>
   <circle class="fil0" cx="676" cy="495" r="16"/>
   <circle class="fil0" cx="700" cy="470" r="16"/>
   <circle class="fil0" cx="712" cy="437" r="16"/>
  </g>
  <g id="lux.b1">
   <circle class="fil0" cx="290" cy="435" r="16"/>
   <circle class="fil0" cx="301" cy="468" r="16"/>
   <circle class="fil0" cx="324" cy="493" r="16"/>
   <circle class="fil0" cx="356" cy="508" r="16"/>
   <circle class="fil0" cx="390" cy="508" r="16"/>
   <circle class="fil0" cx="422" cy="494" r="16"/>
   <circle class="fil0" cx="446" cy="469" r="16"/>
   <circle class="fil0" cx="458" cy="437" r="16"/>
  </g>
  <g id="lux.a5">
   <circle class="fil0" cx="1187" cy="284" r="16"/>
   <circle class="fil0" cx="1197" cy="317" r="16"/>
   <circle class="fil0" cx="1221" cy="343" r="16"/>
   <circle class="fil0" cx="1252" cy="357" r="16"/>
   <circle class="fil0" cx="1287" cy="357" r="16"/>
   <circle class="fil0" cx="1319" cy="344" r="16"/>
   <circle class="fil0" cx="1343" cy="319" r="16"/>
   <circle class="fil0" cx="1354" cy="286" r="16"/>
  </g>
  <g id="lux.a4">
   <circle class="fil0" cx="933" cy="284" r="16"/>
   <circle class="fil0" cx="944" cy="317" r="16"/>
   <circle class="fil0" cx="967" cy="343" r="16"/>
   <circle class="fil0" cx="999" cy="357" r="16"/>
   <circle class="fil0" cx="1034" cy="357" r="16"/>
   <circle class="fil0" cx="1066" cy="344" r="16"/>
   <circle class="fil0" cx="1089" cy="319" r="16"/>
   <circle class="fil0" cx="1101" cy="286" r="16"/>
  </g>
  <g id="lux.a3">
   <circle class="fil0" cx="680" cy="284" r="16"/>
   <circle class="fil0" cx="690" cy="317" r="16"/>
   <circle class="fil0" cx="714" cy="343" r="16"/>
   <circle class="fil0" cx="745" cy="357" r="16"/>
   <circle class="fil0" cx="780" cy="357" r="16"/>
   <circle class="fil0" cx="812" cy="344" r="16"/>
   <circle class="fil0" cx="836" cy="319" r="16"/>
   <circle class="fil0" cx="847" cy="286" r="16"/>
  </g>
  <g id="lux.a2">
   <circle class="fil0" cx="426" cy="284" r="16"/>
   <circle class="fil0" cx="437" cy="317" r="16"/>
   <circle class="fil0" cx="461" cy="343" r="16"/>
   <circle class="fil0" cx="492" cy="357" r="16"/>
   <circle class="fil0" cx="527" cy="357" r="16"/>
   <circle class="fil0" cx="559" cy="344" r="16"/>
   <circle class="fil0" cx="583" cy="319" r="16"/>
   <circle class="fil0" cx="594" cy="286" r="16"/>
  </g>
  <g id="lux.a1">
   <circle class="fil0" cx="173" cy="284" r="16"/>
   <circle class="fil0" cx="184" cy="317" r="16"/>
   <circle class="fil0" cx="207" cy="343" r="16"/>
   <circle class="fil0" cx="239" cy="357" r="16"/>
   <circle class="fil0" cx="274" cy="357" r="16"/>
   <circle class="fil0" cx="306" cy="344" r="16"/>
   <circle class="fil0" cx="329" cy="319" r="16"/>
   <circle class="fil0" cx="341" cy="286" r="16"/>
  </g>
</svg>
