<?xml version="1.0" encoding="UTF-8"?>
<!DOCTYPE svg PUBLIC "-//W3C//DTD SVG 1.1//EN" "http://www.w3.org/Graphics/SVG/1.1/DTD/svg11.dtd">
<!-- Creator: CorelDRAW X7 -->
<svg xmlns="http://www.w3.org/2000/svg" xml:space="preserve" width="1570px" height="2300px" version="1.1" style="shape-rendering:geometricPrecision; text-rendering:geometricPrecision; image-rendering:optimizeQuality; fill-rule:evenodd; clip-rule:evenodd"
viewBox="0 0 1570 2300"
 xmlns:xlink="http://www.w3.org/1999/xlink">
 <defs>
  <style type="text/css">
   <![CDATA[
    .fil9 {fill:#FEFEFE}
    .fil7 {fill:#BDBFC1}
    .fil6 {fill:#BDBFC1}
    .fil1 {fill:#ED3237}
    .fil4 {fill:#00A859}
    .fil8 {fill:black}
    .fil4 {fill:#006283}
    .fil0 {fill:#00AFEF}
    .fil5 {fill:#848688}
    .fil3 {fill:#FFF212}
   ]]>
  </style>
 </defs>
  <g id="v">
   <circle class="fil5" cx="162" cy="2139" r="15"/>
   <circle class="fil5" cx="199" cy="2139" r="15"/>
   <circle class="fil5" cx="236" cy="2139" r="15"/>
   <circle class="fil5" cx="273" cy="2139" r="15"/>
   <circle class="fil5" cx="310" cy="2139" r="15"/>
   <circle class="fil5" cx="347" cy="2139" r="15"/>
   <circle class="fil5" cx="384" cy="2139" r="15"/>
   <circle class="fil5" cx="422" cy="2139" r="15"/>
   <circle class="fil5" cx="458" cy="2139" r="15"/>
   <circle class="fil5" cx="495" cy="2139" r="15"/>
   <circle class="fil5" cx="1058" cy="2139" r="15"/>
   <circle class="fil5" cx="1094" cy="2139" r="15"/>
   <circle class="fil5" cx="1132" cy="2139" r="15"/>
   <circle class="fil5" cx="1169" cy="2139" r="15"/>
   <circle class="fil5" cx="1206" cy="2139" r="15"/>
   <circle class="fil5" cx="1243" cy="2139" r="15"/>
   <circle class="fil5" cx="1280" cy="2139" r="15"/>
   <circle class="fil5" cx="1317" cy="2139" r="15"/>
   <circle class="fil5" cx="1354" cy="2139" r="15"/>
   <circle class="fil5" cx="1391" cy="2139" r="15"/>
  </g>
  <g id="u">
   <circle class="fil5" cx="162" cy="2092" r="15"/>
   <circle class="fil5" cx="199" cy="2092" r="15"/>
   <circle class="fil5" cx="236" cy="2092" r="15"/>
   <circle class="fil5" cx="273" cy="2092" r="15"/>
   <circle class="fil5" cx="310" cy="2092" r="15"/>
   <circle class="fil5" cx="347" cy="2092" r="15"/>
   <circle class="fil5" cx="384" cy="2092" r="15"/>
   <circle class="fil5" cx="422" cy="2092" r="15"/>
   <circle class="fil5" cx="458" cy="2092" r="15"/>
   <circle class="fil5" cx="495" cy="2092" r="15"/>
   <circle class="fil5" cx="1058" cy="2092" r="15"/>
   <circle class="fil5" cx="1094" cy="2092" r="15"/>
   <circle class="fil5" cx="1132" cy="2092" r="15"/>
   <circle class="fil5" cx="1169" cy="2092" r="15"/>
   <circle class="fil5" cx="1206" cy="2092" r="15"/>
   <circle class="fil5" cx="1243" cy="2092" r="15"/>
   <circle class="fil5" cx="1280" cy="2092" r="15"/>
   <circle class="fil5" cx="1317" cy="2092" r="15"/>
   <circle class="fil5" cx="1354" cy="2092" r="15"/>
   <circle class="fil5" cx="1391" cy="2092" r="15"/>
  </g>
  <g id="t">
   <circle class="fil4" cx="162" cy="2046" r="15"/>
   <circle class="fil4" cx="199" cy="2046" r="15"/>
   <circle class="fil4" cx="236" cy="2046" r="15"/>
   <circle class="fil4" cx="273" cy="2046" r="15"/>
   <circle class="fil4" cx="310" cy="2046" r="15"/>
   <circle class="fil4" cx="347" cy="2046" r="15"/>
   <circle class="fil4" cx="384" cy="2046" r="15"/>
   <circle class="fil4" cx="422" cy="2046" r="15"/>
   <circle class="fil4" cx="458" cy="2046" r="15"/>
   <circle class="fil4" cx="495" cy="2046" r="15"/>
   <circle class="fil4" cx="610" cy="2046" r="15"/>
   <circle class="fil4" cx="647" cy="2046" r="15"/>
   <circle class="fil4" cx="684" cy="2046" r="15"/>
   <circle class="fil4" cx="721" cy="2046" r="15"/>
   <circle class="fil4" cx="758" cy="2046" r="15"/>
   <circle class="fil4" cx="795" cy="2046" r="15"/>
   <circle class="fil4" cx="832" cy="2046" r="15"/>
   <circle class="fil4" cx="869" cy="2046" r="15"/>
   <circle class="fil4" cx="906" cy="2046" r="15"/>
   <circle class="fil4" cx="943" cy="2046" r="15"/>
   <circle class="fil4" cx="1058" cy="2046" r="15"/>
   <circle class="fil4" cx="1094" cy="2046" r="15"/>
   <circle class="fil4" cx="1132" cy="2046" r="15"/>
   <circle class="fil4" cx="1169" cy="2046" r="15"/>
   <circle class="fil4" cx="1206" cy="2046" r="15"/>
   <circle class="fil4" cx="1243" cy="2046" r="15"/>
   <circle class="fil4" cx="1280" cy="2046" r="15"/>
   <circle class="fil4" cx="1317" cy="2046" r="15"/>
   <circle class="fil4" cx="1354" cy="2046" r="15"/>
   <circle class="fil4" cx="1391" cy="2046" r="15"/>
  </g>
  <g id="s">
   <circle class="fil4" cx="162" cy="1999" r="15"/>
   <circle class="fil4" cx="199" cy="1999" r="15"/>
   <circle class="fil4" cx="236" cy="1999" r="15"/>
   <circle class="fil4" cx="273" cy="1999" r="15"/>
   <circle class="fil4" cx="310" cy="1999" r="15"/>
   <circle class="fil4" cx="347" cy="1999" r="15"/>
   <circle class="fil4" cx="384" cy="1999" r="15"/>
   <circle class="fil4" cx="422" cy="1999" r="15"/>
   <circle class="fil4" cx="458" cy="1999" r="15"/>
   <circle class="fil4" cx="495" cy="1999" r="15"/>
   <circle class="fil4" cx="610" cy="1999" r="15"/>
   <circle class="fil4" cx="647" cy="1999" r="15"/>
   <circle class="fil4" cx="684" cy="1999" r="15"/>
   <circle class="fil4" cx="721" cy="1999" r="15"/>
   <circle class="fil4" cx="758" cy="1999" r="15"/>
   <circle class="fil4" cx="795" cy="1999" r="15"/>
   <circle class="fil4" cx="832" cy="1999" r="15"/>
   <circle class="fil4" cx="869" cy="1999" r="15"/>
   <circle class="fil4" cx="906" cy="1999" r="15"/>
   <circle class="fil4" cx="943" cy="1999" r="15"/>
   <circle class="fil4" cx="1058" cy="1999" r="15"/>
   <circle class="fil4" cx="1094" cy="1999" r="15"/>
   <circle class="fil4" cx="1132" cy="1999" r="15"/>
   <circle class="fil4" cx="1169" cy="1999" r="15"/>
   <circle class="fil4" cx="1206" cy="1999" r="15"/>
   <circle class="fil4" cx="1243" cy="1999" r="15"/>
   <circle class="fil4" cx="1280" cy="1999" r="15"/>
   <circle class="fil4" cx="1317" cy="1999" r="15"/>
   <circle class="fil4" cx="1354" cy="1999" r="15"/>
   <circle class="fil4" cx="1391" cy="1999" r="15"/>
  </g>
  <g id="r">
   <circle class="fil4" cx="162" cy="1953" r="15"/>
   <circle class="fil4" cx="199" cy="1953" r="15"/>
   <circle class="fil4" cx="236" cy="1953" r="15"/>
   <circle class="fil4" cx="273" cy="1953" r="15"/>
   <circle class="fil4" cx="310" cy="1953" r="15"/>
   <circle class="fil4" cx="347" cy="1953" r="15"/>
   <circle class="fil4" cx="384" cy="1953" r="15"/>
   <circle class="fil4" cx="422" cy="1953" r="15"/>
   <circle class="fil4" cx="458" cy="1953" r="15"/>
   <circle class="fil4" cx="495" cy="1953" r="15"/>
   <circle class="fil4" cx="610" cy="1953" r="15"/>
   <circle class="fil4" cx="647" cy="1953" r="15"/>
   <circle class="fil4" cx="684" cy="1953" r="15"/>
   <circle class="fil4" cx="721" cy="1953" r="15"/>
   <circle class="fil4" cx="758" cy="1953" r="15"/>
   <circle class="fil4" cx="795" cy="1953" r="15"/>
   <circle class="fil4" cx="832" cy="1953" r="15"/>
   <circle class="fil4" cx="869" cy="1953" r="15"/>
   <circle class="fil4" cx="906" cy="1953" r="15"/>
   <circle class="fil4" cx="943" cy="1953" r="15"/>
   <circle class="fil4" cx="1058" cy="1953" r="15"/>
   <circle class="fil4" cx="1094" cy="1953" r="15"/>
   <circle class="fil4" cx="1132" cy="1953" r="15"/>
   <circle class="fil4" cx="1169" cy="1953" r="15"/>
   <circle class="fil4" cx="1206" cy="1953" r="15"/>
   <circle class="fil4" cx="1243" cy="1953" r="15"/>
   <circle class="fil4" cx="1280" cy="1953" r="15"/>
   <circle class="fil4" cx="1317" cy="1953" r="15"/>
   <circle class="fil4" cx="1354" cy="1953" r="15"/>
   <circle class="fil4" cx="1391" cy="1953" r="15"/>
  </g>
  <g id="q">
   <circle class="fil4" cx="162" cy="1906" r="15"/>
   <circle class="fil4" cx="199" cy="1906" r="15"/>
   <circle class="fil4" cx="236" cy="1906" r="15"/>
   <circle class="fil4" cx="273" cy="1906" r="15"/>
   <circle class="fil4" cx="310" cy="1906" r="15"/>
   <circle class="fil4" cx="347" cy="1906" r="15"/>
   <circle class="fil4" cx="384" cy="1906" r="15"/>
   <circle class="fil4" cx="422" cy="1906" r="15"/>
   <circle class="fil4" cx="458" cy="1906" r="15"/>
   <circle class="fil4" cx="495" cy="1906" r="15"/>
   <circle class="fil3" cx="610" cy="1906" r="15"/>
   <circle class="fil3" cx="647" cy="1906" r="15"/>
   <circle class="fil3" cx="684" cy="1906" r="15"/>
   <circle class="fil3" cx="721" cy="1906" r="15"/>
   <circle class="fil3" cx="758" cy="1906" r="15"/>
   <circle class="fil3" cx="795" cy="1906" r="15"/>
   <circle class="fil3" cx="832" cy="1906" r="15"/>
   <circle class="fil3" cx="869" cy="1906" r="15"/>
   <circle class="fil3" cx="906" cy="1906" r="15"/>
   <circle class="fil3" cx="943" cy="1906" r="15"/>
   <circle class="fil4" cx="1058" cy="1906" r="15"/>
   <circle class="fil4" cx="1094" cy="1906" r="15"/>
   <circle class="fil4" cx="1132" cy="1906" r="15"/>
   <circle class="fil4" cx="1169" cy="1906" r="15"/>
   <circle class="fil4" cx="1206" cy="1906" r="15"/>
   <circle class="fil4" cx="1243" cy="1906" r="15"/>
   <circle class="fil4" cx="1280" cy="1906" r="15"/>
   <circle class="fil4" cx="1317" cy="1906" r="15"/>
   <circle class="fil4" cx="1354" cy="1906" r="15"/>
   <circle class="fil4" cx="1391" cy="1906" r="15"/>
  </g>
  <g id="p">
   <circle class="fil4" cx="162" cy="1860" r="15"/>
   <circle class="fil4" cx="199" cy="1860" r="15"/>
   <circle class="fil4" cx="236" cy="1860" r="15"/>
   <circle class="fil4" cx="273" cy="1860" r="15"/>
   <circle class="fil4" cx="310" cy="1860" r="15"/>
   <circle class="fil4" cx="347" cy="1860" r="15"/>
   <circle class="fil4" cx="384" cy="1860" r="15"/>
   <circle class="fil4" cx="422" cy="1860" r="15"/>
   <circle class="fil4" cx="458" cy="1860" r="15"/>
   <circle class="fil4" cx="495" cy="1860" r="15"/>
   <circle class="fil3" cx="610" cy="1860" r="15"/>
   <circle class="fil3" cx="647" cy="1860" r="15"/>
   <circle class="fil3" cx="684" cy="1860" r="15"/>
   <circle class="fil3" cx="721" cy="1860" r="15"/>
   <circle class="fil3" cx="758" cy="1860" r="15"/>
   <circle class="fil3" cx="795" cy="1860" r="15"/>
   <circle class="fil3" cx="832" cy="1860" r="15"/>
   <circle class="fil3" cx="869" cy="1860" r="15"/>
   <circle class="fil3" cx="906" cy="1860" r="15"/>
   <circle class="fil3" cx="943" cy="1860" r="15"/>
   <circle class="fil4" cx="1058" cy="1860" r="15"/>
   <circle class="fil4" cx="1094" cy="1860" r="15"/>
   <circle class="fil4" cx="1132" cy="1860" r="15"/>
   <circle class="fil4" cx="1169" cy="1860" r="15"/>
   <circle class="fil4" cx="1206" cy="1860" r="15"/>
   <circle class="fil4" cx="1243" cy="1860" r="15"/>
   <circle class="fil4" cx="1280" cy="1860" r="15"/>
   <circle class="fil4" cx="1317" cy="1860" r="15"/>
   <circle class="fil4" cx="1354" cy="1860" r="15"/>
   <circle class="fil4" cx="1391" cy="1860" r="15"/>
  </g>
  <g id="n">
   <circle class="fil4" cx="162" cy="1814" r="15"/>
   <circle class="fil4" cx="199" cy="1814" r="15"/>
   <circle class="fil4" cx="236" cy="1814" r="15"/>
   <circle class="fil4" cx="273" cy="1814" r="15"/>
   <circle class="fil4" cx="310" cy="1814" r="15"/>
   <circle class="fil4" cx="347" cy="1814" r="15"/>
   <circle class="fil4" cx="384" cy="1814" r="15"/>
   <circle class="fil4" cx="422" cy="1814" r="15"/>
   <circle class="fil4" cx="458" cy="1814" r="15"/>
   <circle class="fil4" cx="495" cy="1814" r="15"/>
   <circle class="fil3" cx="610" cy="1814" r="15"/>
   <circle class="fil3" cx="647" cy="1814" r="15"/>
   <circle class="fil3" cx="684" cy="1814" r="15"/>
   <circle class="fil3" cx="721" cy="1814" r="15"/>
   <circle class="fil3" cx="758" cy="1814" r="15"/>
   <circle class="fil3" cx="795" cy="1814" r="15"/>
   <circle class="fil3" cx="832" cy="1814" r="15"/>
   <circle class="fil3" cx="869" cy="1814" r="15"/>
   <circle class="fil3" cx="906" cy="1814" r="15"/>
   <circle class="fil3" cx="943" cy="1814" r="15"/>
   <circle class="fil4" cx="1058" cy="1814" r="15"/>
   <circle class="fil4" cx="1094" cy="1814" r="15"/>
   <circle class="fil4" cx="1132" cy="1814" r="15"/>
   <circle class="fil4" cx="1169" cy="1814" r="15"/>
   <circle class="fil4" cx="1206" cy="1814" r="15"/>
   <circle class="fil4" cx="1243" cy="1814" r="15"/>
   <circle class="fil4" cx="1280" cy="1814" r="15"/>
   <circle class="fil4" cx="1317" cy="1814" r="15"/>
   <circle class="fil4" cx="1354" cy="1814" r="15"/>
   <circle class="fil4" cx="1391" cy="1814" r="15"/>
  </g>
  <g id="m">
   <circle class="fil4" cx="162" cy="1767" r="15"/>
   <circle class="fil4" cx="199" cy="1767" r="15"/>
   <circle class="fil4" cx="236" cy="1767" r="15"/>
   <circle class="fil4" cx="273" cy="1767" r="15"/>
   <circle class="fil4" cx="310" cy="1767" r="15"/>
   <circle class="fil4" cx="347" cy="1767" r="15"/>
   <circle class="fil4" cx="384" cy="1767" r="15"/>
   <circle class="fil4" cx="422" cy="1767" r="15"/>
   <circle class="fil4" cx="458" cy="1767" r="15"/>
   <circle class="fil4" cx="495" cy="1767" r="15"/>
   <circle class="fil3" cx="610" cy="1767" r="15"/>
   <circle class="fil3" cx="647" cy="1767" r="15"/>
   <circle class="fil3" cx="684" cy="1767" r="15"/>
   <circle class="fil3" cx="721" cy="1767" r="15"/>
   <circle class="fil3" cx="758" cy="1767" r="15"/>
   <circle class="fil3" cx="795" cy="1767" r="15"/>
   <circle class="fil3" cx="832" cy="1767" r="15"/>
   <circle class="fil3" cx="869" cy="1767" r="15"/>
   <circle class="fil3" cx="906" cy="1767" r="15"/>
   <circle class="fil3" cx="943" cy="1767" r="15"/>
   <circle class="fil4" cx="1058" cy="1767" r="15"/>
   <circle class="fil4" cx="1094" cy="1767" r="15"/>
   <circle class="fil4" cx="1132" cy="1767" r="15"/>
   <circle class="fil4" cx="1169" cy="1767" r="15"/>
   <circle class="fil4" cx="1206" cy="1767" r="15"/>
   <circle class="fil4" cx="1243" cy="1767" r="15"/>
   <circle class="fil4" cx="1280" cy="1767" r="15"/>
   <circle class="fil4" cx="1317" cy="1767" r="15"/>
   <circle class="fil4" cx="1354" cy="1767" r="15"/>
   <circle class="fil4" cx="1391" cy="1767" r="15"/>
  </g>
  <g id="l">
   <circle class="fil4" cx="162" cy="1721" r="15"/>
   <circle class="fil4" cx="199" cy="1721" r="15"/>
   <circle class="fil4" cx="236" cy="1721" r="15"/>
   <circle class="fil4" cx="273" cy="1721" r="15"/>
   <circle class="fil4" cx="310" cy="1721" r="15"/>
   <circle class="fil4" cx="347" cy="1721" r="15"/>
   <circle class="fil4" cx="384" cy="1721" r="15"/>
   <circle class="fil4" cx="422" cy="1721" r="15"/>
   <circle class="fil4" cx="458" cy="1721" r="15"/>
   <circle class="fil4" cx="495" cy="1721" r="15"/>
   <circle class="fil3" cx="610" cy="1721" r="15"/>
   <circle class="fil3" cx="647" cy="1721" r="15"/>
   <circle class="fil3" cx="684" cy="1721" r="15"/>
   <circle class="fil3" cx="721" cy="1721" r="15"/>
   <circle class="fil3" cx="758" cy="1721" r="15"/>
   <circle class="fil3" cx="795" cy="1721" r="15"/>
   <circle class="fil3" cx="832" cy="1721" r="15"/>
   <circle class="fil3" cx="869" cy="1721" r="15"/>
   <circle class="fil3" cx="906" cy="1721" r="15"/>
   <circle class="fil3" cx="943" cy="1721" r="15"/>
   <circle class="fil4" cx="1058" cy="1721" r="15"/>
   <circle class="fil4" cx="1094" cy="1721" r="15"/>
   <circle class="fil4" cx="1132" cy="1721" r="15"/>
   <circle class="fil4" cx="1169" cy="1721" r="15"/>
   <circle class="fil4" cx="1206" cy="1721" r="15"/>
   <circle class="fil4" cx="1243" cy="1721" r="15"/>
   <circle class="fil4" cx="1280" cy="1721" r="15"/>
   <circle class="fil4" cx="1317" cy="1721" r="15"/>
   <circle class="fil4" cx="1354" cy="1721" r="15"/>
   <circle class="fil4" cx="1391" cy="1721" r="15"/>
  </g>
  <g id="k">
   <circle class="fil3" cx="162" cy="1618" r="15"/>
   <circle class="fil3" cx="199" cy="1618" r="15"/>
   <circle class="fil3" cx="236" cy="1618" r="15"/>
   <circle class="fil3" cx="273" cy="1618" r="15"/>
   <circle class="fil3" cx="310" cy="1618" r="15"/>
   <circle class="fil3" cx="347" cy="1618" r="15"/>
   <circle class="fil3" cx="384" cy="1618" r="15"/>
   <circle class="fil3" cx="422" cy="1618" r="15"/>
   <circle class="fil3" cx="458" cy="1618" r="15"/>
   <circle class="fil3" cx="495" cy="1618" r="15"/>
   <circle class="fil2" cx="610" cy="1618" r="15"/>
   <circle class="fil2" cx="647" cy="1618" r="15"/>
   <circle class="fil2" cx="684" cy="1618" r="15"/>
   <circle class="fil2" cx="721" cy="1618" r="15"/>
   <circle class="fil2" cx="758" cy="1618" r="15"/>
   <circle class="fil2" cx="795" cy="1618" r="15"/>
   <circle class="fil2" cx="832" cy="1618" r="15"/>
   <circle class="fil2" cx="869" cy="1618" r="15"/>
   <circle class="fil2" cx="906" cy="1618" r="15"/>
   <circle class="fil2" cx="943" cy="1618" r="15"/>
   <circle class="fil3" cx="1058" cy="1618" r="15"/>
   <circle class="fil3" cx="1094" cy="1618" r="15"/>
   <circle class="fil3" cx="1132" cy="1618" r="15"/>
   <circle class="fil3" cx="1169" cy="1618" r="15"/>
   <circle class="fil3" cx="1206" cy="1618" r="15"/>
   <circle class="fil3" cx="1243" cy="1618" r="15"/>
   <circle class="fil3" cx="1280" cy="1618" r="15"/>
   <circle class="fil3" cx="1317" cy="1618" r="15"/>
   <circle class="fil3" cx="1354" cy="1618" r="15"/>
   <circle class="fil3" cx="1391" cy="1618" r="15"/>
  </g>
  <g id="j">
   <circle class="fil3" cx="162" cy="1572" r="15"/>
   <circle class="fil3" cx="199" cy="1572" r="15"/>
   <circle class="fil3" cx="236" cy="1572" r="15"/>
   <circle class="fil3" cx="273" cy="1572" r="15"/>
   <circle class="fil3" cx="310" cy="1572" r="15"/>
   <circle class="fil3" cx="347" cy="1572" r="15"/>
   <circle class="fil3" cx="384" cy="1572" r="15"/>
   <circle class="fil3" cx="422" cy="1572" r="15"/>
   <circle class="fil3" cx="458" cy="1572" r="15"/>
   <circle class="fil3" cx="495" cy="1572" r="15"/>
   <circle class="fil2" cx="610" cy="1572" r="15"/>
   <circle class="fil2" cx="647" cy="1572" r="15"/>
   <circle class="fil2" cx="684" cy="1572" r="15"/>
   <circle class="fil2" cx="721" cy="1572" r="15"/>
   <circle class="fil2" cx="758" cy="1572" r="15"/>
   <circle class="fil2" cx="795" cy="1572" r="15"/>
   <circle class="fil2" cx="832" cy="1572" r="15"/>
   <circle class="fil2" cx="869" cy="1572" r="15"/>
   <circle class="fil2" cx="906" cy="1572" r="15"/>
   <circle class="fil2" cx="943" cy="1572" r="15"/>
   <circle class="fil3" cx="1058" cy="1572" r="15"/>
   <circle class="fil3" cx="1094" cy="1572" r="15"/>
   <circle class="fil3" cx="1132" cy="1572" r="15"/>
   <circle class="fil3" cx="1169" cy="1572" r="15"/>
   <circle class="fil3" cx="1206" cy="1572" r="15"/>
   <circle class="fil3" cx="1243" cy="1572" r="15"/>
   <circle class="fil3" cx="1280" cy="1572" r="15"/>
   <circle class="fil3" cx="1317" cy="1572" r="15"/>
   <circle class="fil3" cx="1354" cy="1572" r="15"/>
   <circle class="fil3" cx="1391" cy="1572" r="15"/>
  </g>
  <g id="h">
   <circle class="fil3" cx="162" cy="1525" r="15"/>
   <circle class="fil3" cx="199" cy="1525" r="15"/>
   <circle class="fil3" cx="236" cy="1525" r="15"/>
   <circle class="fil3" cx="273" cy="1525" r="15"/>
   <circle class="fil3" cx="310" cy="1525" r="15"/>
   <circle class="fil3" cx="347" cy="1525" r="15"/>
   <circle class="fil3" cx="384" cy="1525" r="15"/>
   <circle class="fil3" cx="422" cy="1525" r="15"/>
   <circle class="fil3" cx="458" cy="1525" r="15"/>
   <circle class="fil3" cx="495" cy="1525" r="15"/>
   <circle class="fil2" cx="610" cy="1525" r="15"/>
   <circle class="fil2" cx="647" cy="1525" r="15"/>
   <circle class="fil2" cx="684" cy="1525" r="15"/>
   <circle class="fil2" cx="721" cy="1525" r="15"/>
   <circle class="fil2" cx="758" cy="1525" r="15"/>
   <circle class="fil2" cx="795" cy="1525" r="15"/>
   <circle class="fil2" cx="832" cy="1525" r="15"/>
   <circle class="fil2" cx="869" cy="1525" r="15"/>
   <circle class="fil2" cx="906" cy="1525" r="15"/>
   <circle class="fil2" cx="943" cy="1525" r="15"/>
   <circle class="fil3" cx="1058" cy="1525" r="15"/>
   <circle class="fil3" cx="1094" cy="1525" r="15"/>
   <circle class="fil3" cx="1132" cy="1525" r="15"/>
   <circle class="fil3" cx="1169" cy="1525" r="15"/>
   <circle class="fil3" cx="1206" cy="1525" r="15"/>
   <circle class="fil3" cx="1243" cy="1525" r="15"/>
   <circle class="fil3" cx="1280" cy="1525" r="15"/>
   <circle class="fil3" cx="1317" cy="1525" r="15"/>
   <circle class="fil3" cx="1354" cy="1525" r="15"/>
   <circle class="fil3" cx="1391" cy="1525" r="15"/>
  </g>
  <g id="g">
   <circle class="fil3" cx="162" cy="1478" r="15"/>
   <circle class="fil3" cx="199" cy="1478" r="15"/>
   <circle class="fil3" cx="236" cy="1478" r="15"/>
   <circle class="fil3" cx="273" cy="1478" r="15"/>
   <circle class="fil3" cx="310" cy="1478" r="15"/>
   <circle class="fil3" cx="347" cy="1478" r="15"/>
   <circle class="fil3" cx="384" cy="1478" r="15"/>
   <circle class="fil3" cx="422" cy="1478" r="15"/>
   <circle class="fil3" cx="458" cy="1478" r="15"/>
   <circle class="fil3" cx="495" cy="1478" r="15"/>
   <circle class="fil2" cx="610" cy="1478" r="15"/>
   <circle class="fil2" cx="647" cy="1478" r="15"/>
   <circle class="fil2" cx="684" cy="1478" r="15"/>
   <circle class="fil2" cx="721" cy="1478" r="15"/>
   <circle class="fil2" cx="758" cy="1478" r="15"/>
   <circle class="fil2" cx="795" cy="1478" r="15"/>
   <circle class="fil2" cx="832" cy="1478" r="15"/>
   <circle class="fil2" cx="869" cy="1478" r="15"/>
   <circle class="fil2" cx="906" cy="1478" r="15"/>
   <circle class="fil2" cx="943" cy="1478" r="15"/>
   <circle class="fil3" cx="1058" cy="1478" r="15"/>
   <circle class="fil3" cx="1094" cy="1478" r="15"/>
   <circle class="fil3" cx="1132" cy="1478" r="15"/>
   <circle class="fil3" cx="1169" cy="1478" r="15"/>
   <circle class="fil3" cx="1206" cy="1478" r="15"/>
   <circle class="fil3" cx="1243" cy="1478" r="15"/>
   <circle class="fil3" cx="1280" cy="1478" r="15"/>
   <circle class="fil3" cx="1317" cy="1478" r="15"/>
   <circle class="fil3" cx="1354" cy="1478" r="15"/>
   <circle class="fil3" cx="1391" cy="1478" r="15"/>
  </g>
  <g id="f">
   <circle class="fil3" cx="162" cy="1432" r="15"/>
   <circle class="fil3" cx="199" cy="1432" r="15"/>
   <circle class="fil3" cx="236" cy="1432" r="15"/>
   <circle class="fil3" cx="273" cy="1432" r="15"/>
   <circle class="fil3" cx="310" cy="1432" r="15"/>
   <circle class="fil3" cx="347" cy="1432" r="15"/>
   <circle class="fil3" cx="384" cy="1432" r="15"/>
   <circle class="fil3" cx="422" cy="1432" r="15"/>
   <circle class="fil3" cx="458" cy="1432" r="15"/>
   <circle class="fil3" cx="495" cy="1432" r="15"/>
   <circle class="fil2" cx="610" cy="1432" r="15"/>
   <circle class="fil2" cx="647" cy="1432" r="15"/>
   <circle class="fil2" cx="684" cy="1432" r="15"/>
   <circle class="fil2" cx="721" cy="1432" r="15"/>
   <circle class="fil2" cx="758" cy="1432" r="15"/>
   <circle class="fil2" cx="795" cy="1432" r="15"/>
   <circle class="fil2" cx="832" cy="1432" r="15"/>
   <circle class="fil2" cx="869" cy="1432" r="15"/>
   <circle class="fil2" cx="906" cy="1432" r="15"/>
   <circle class="fil2" cx="943" cy="1432" r="15"/>
   <circle class="fil3" cx="1058" cy="1432" r="15"/>
   <circle class="fil3" cx="1094" cy="1432" r="15"/>
   <circle class="fil3" cx="1132" cy="1432" r="15"/>
   <circle class="fil3" cx="1169" cy="1432" r="15"/>
   <circle class="fil3" cx="1206" cy="1432" r="15"/>
   <circle class="fil3" cx="1243" cy="1432" r="15"/>
   <circle class="fil3" cx="1280" cy="1432" r="15"/>
   <circle class="fil3" cx="1317" cy="1432" r="15"/>
   <circle class="fil3" cx="1354" cy="1432" r="15"/>
   <circle class="fil3" cx="1391" cy="1432" r="15"/>
  </g>
  <g id="e">
   <circle class="fil2" cx="162" cy="1385" r="15"/>
   <circle class="fil2" cx="199" cy="1385" r="15"/>
   <circle class="fil2" cx="236" cy="1385" r="15"/>
   <circle class="fil2" cx="273" cy="1385" r="15"/>
   <circle class="fil2" cx="310" cy="1385" r="15"/>
   <circle class="fil2" cx="347" cy="1385" r="15"/>
   <circle class="fil2" cx="384" cy="1385" r="15"/>
   <circle class="fil2" cx="422" cy="1385" r="15"/>
   <circle class="fil2" cx="458" cy="1385" r="15"/>
   <circle class="fil2" cx="495" cy="1385" r="15"/>
   <circle class="fil2" cx="610" cy="1385" r="15"/>
   <circle class="fil2" cx="647" cy="1385" r="15"/>
   <circle class="fil2" cx="684" cy="1385" r="15"/>
   <circle class="fil2" cx="721" cy="1385" r="15"/>
   <circle class="fil2" cx="758" cy="1385" r="15"/>
   <circle class="fil2" cx="795" cy="1385" r="15"/>
   <circle class="fil2" cx="832" cy="1385" r="15"/>
   <circle class="fil2" cx="869" cy="1385" r="15"/>
   <circle class="fil2" cx="906" cy="1385" r="15"/>
   <circle class="fil2" cx="943" cy="1385" r="15"/>
   <circle class="fil2" cx="1058" cy="1385" r="15"/>
   <circle class="fil2" cx="1094" cy="1385" r="15"/>
   <circle class="fil2" cx="1132" cy="1385" r="15"/>
   <circle class="fil2" cx="1169" cy="1385" r="15"/>
   <circle class="fil2" cx="1206" cy="1385" r="15"/>
   <circle class="fil2" cx="1243" cy="1385" r="15"/>
   <circle class="fil2" cx="1280" cy="1385" r="15"/>
   <circle class="fil2" cx="1317" cy="1385" r="15"/>
   <circle class="fil2" cx="1354" cy="1385" r="15"/>
   <circle class="fil2" cx="1391" cy="1385" r="15"/>
  </g>
  <g id="d">
   <circle class="fil2" cx="162" cy="1339" r="15"/>
   <circle class="fil2" cx="199" cy="1339" r="15"/>
   <circle class="fil2" cx="236" cy="1339" r="15"/>
   <circle class="fil2" cx="273" cy="1339" r="15"/>
   <circle class="fil2" cx="310" cy="1339" r="15"/>
   <circle class="fil2" cx="347" cy="1339" r="15"/>
   <circle class="fil2" cx="384" cy="1339" r="15"/>
   <circle class="fil2" cx="422" cy="1339" r="15"/>
   <circle class="fil2" cx="458" cy="1339" r="15"/>
   <circle class="fil2" cx="495" cy="1339" r="15"/>
   <circle class="fil2" cx="610" cy="1339" r="15"/>
   <circle class="fil2" cx="647" cy="1339" r="15"/>
   <circle class="fil2" cx="684" cy="1339" r="15"/>
   <circle class="fil2" cx="721" cy="1339" r="15"/>
   <circle class="fil2" cx="758" cy="1339" r="15"/>
   <circle class="fil2" cx="795" cy="1339" r="15"/>
   <circle class="fil2" cx="832" cy="1339" r="15"/>
   <circle class="fil2" cx="869" cy="1339" r="15"/>
   <circle class="fil2" cx="906" cy="1339" r="15"/>
   <circle class="fil2" cx="943" cy="1339" r="15"/>
   <circle class="fil2" cx="1058" cy="1339" r="15"/>
   <circle class="fil2" cx="1094" cy="1339" r="15"/>
   <circle class="fil2" cx="1132" cy="1339" r="15"/>
   <circle class="fil2" cx="1169" cy="1339" r="15"/>
   <circle class="fil2" cx="1206" cy="1339" r="15"/>
   <circle class="fil2" cx="1243" cy="1339" r="15"/>
   <circle class="fil2" cx="1280" cy="1339" r="15"/>
   <circle class="fil2" cx="1317" cy="1339" r="15"/>
   <circle class="fil2" cx="1354" cy="1339" r="15"/>
   <circle class="fil2" cx="1391" cy="1339" r="15"/>
  </g>
  <g id="c">
   <circle class="fil2" cx="162" cy="1293" r="15"/>
   <circle class="fil2" cx="199" cy="1293" r="15"/>
   <circle class="fil2" cx="236" cy="1293" r="15"/>
   <circle class="fil2" cx="273" cy="1293" r="15"/>
   <circle class="fil2" cx="310" cy="1293" r="15"/>
   <circle class="fil2" cx="347" cy="1293" r="15"/>
   <circle class="fil2" cx="384" cy="1293" r="15"/>
   <circle class="fil2" cx="422" cy="1293" r="15"/>
   <circle class="fil2" cx="458" cy="1293" r="15"/>
   <circle class="fil2" cx="495" cy="1293" r="15"/>
   <circle class="fil2" cx="610" cy="1293" r="15"/>
   <circle class="fil2" cx="647" cy="1293" r="15"/>
   <circle class="fil2" cx="684" cy="1293" r="15"/>
   <circle class="fil2" cx="721" cy="1293" r="15"/>
   <circle class="fil2" cx="758" cy="1293" r="15"/>
   <circle class="fil2" cx="795" cy="1293" r="15"/>
   <circle class="fil2" cx="832" cy="1293" r="15"/>
   <circle class="fil2" cx="869" cy="1293" r="15"/>
   <circle class="fil2" cx="906" cy="1293" r="15"/>
   <circle class="fil2" cx="943" cy="1293" r="15"/>
   <circle class="fil2" cx="1058" cy="1293" r="15"/>
   <circle class="fil2" cx="1094" cy="1293" r="15"/>
   <circle class="fil2" cx="1132" cy="1293" r="15"/>
   <circle class="fil2" cx="1169" cy="1293" r="15"/>
   <circle class="fil2" cx="1206" cy="1293" r="15"/>
   <circle class="fil2" cx="1243" cy="1293" r="15"/>
   <circle class="fil2" cx="1280" cy="1293" r="15"/>
   <circle class="fil2" cx="1317" cy="1293" r="15"/>
   <circle class="fil2" cx="1354" cy="1293" r="15"/>
   <circle class="fil2" cx="1391" cy="1293" r="15"/>
  </g>
  <g id="b">
   <circle class="fil2" cx="162" cy="1246" r="15"/>
   <circle class="fil2" cx="199" cy="1246" r="15"/>
   <circle class="fil2" cx="236" cy="1246" r="15"/>
   <circle class="fil2" cx="273" cy="1246" r="15"/>
   <circle class="fil2" cx="310" cy="1246" r="15"/>
   <circle class="fil2" cx="347" cy="1246" r="15"/>
   <circle class="fil2" cx="384" cy="1246" r="15"/>
   <circle class="fil2" cx="422" cy="1246" r="15"/>
   <circle class="fil2" cx="458" cy="1246" r="15"/>
   <circle class="fil2" cx="495" cy="1246" r="15"/>
   <circle class="fil2" cx="610" cy="1246" r="15"/>
   <circle class="fil2" cx="647" cy="1246" r="15"/>
   <circle class="fil2" cx="684" cy="1246" r="15"/>
   <circle class="fil2" cx="721" cy="1246" r="15"/>
   <circle class="fil2" cx="758" cy="1246" r="15"/>
   <circle class="fil2" cx="795" cy="1246" r="15"/>
   <circle class="fil2" cx="832" cy="1246" r="15"/>
   <circle class="fil2" cx="869" cy="1246" r="15"/>
   <circle class="fil2" cx="906" cy="1246" r="15"/>
   <circle class="fil2" cx="943" cy="1246" r="15"/>
   <circle class="fil2" cx="1058" cy="1246" r="15"/>
   <circle class="fil2" cx="1094" cy="1246" r="15"/>
   <circle class="fil2" cx="1132" cy="1246" r="15"/>
   <circle class="fil2" cx="1169" cy="1246" r="15"/>
   <circle class="fil2" cx="1206" cy="1246" r="15"/>
   <circle class="fil2" cx="1243" cy="1246" r="15"/>
   <circle class="fil2" cx="1280" cy="1246" r="15"/>
   <circle class="fil2" cx="1317" cy="1246" r="15"/>
   <circle class="fil2" cx="1354" cy="1246" r="15"/>
   <circle class="fil2" cx="1391" cy="1246" r="15"/>
  </g>
  <g id="a">
   <circle class="fil2" cx="162" cy="1200" r="15"/>
   <circle class="fil2" cx="199" cy="1200" r="15"/>
   <circle class="fil2" cx="236" cy="1200" r="15"/>
   <circle class="fil2" cx="273" cy="1200" r="15"/>
   <circle class="fil2" cx="310" cy="1200" r="15"/>
   <circle class="fil2" cx="347" cy="1200" r="15"/>
   <circle class="fil2" cx="384" cy="1200" r="15"/>
   <circle class="fil2" cx="422" cy="1200" r="15"/>
   <circle class="fil2" cx="458" cy="1200" r="15"/>
   <circle class="fil2" cx="495" cy="1200" r="15"/>
   <circle class="fil2" cx="610" cy="1200" r="15"/>
   <circle class="fil2" cx="647" cy="1200" r="15"/>
   <circle class="fil2" cx="684" cy="1200" r="15"/>
   <circle class="fil2" cx="721" cy="1200" r="15"/>
   <circle class="fil2" cx="758" cy="1200" r="15"/>
   <circle class="fil2" cx="795" cy="1200" r="15"/>
   <circle class="fil2" cx="832" cy="1200" r="15"/>
   <circle class="fil2" cx="869" cy="1200" r="15"/>
   <circle class="fil2" cx="906" cy="1200" r="15"/>
   <circle class="fil2" cx="943" cy="1200" r="15"/>
   <circle class="fil2" cx="1058" cy="1200" r="15"/>
   <circle class="fil2" cx="1094" cy="1200" r="15"/>
   <circle class="fil2" cx="1132" cy="1200" r="15"/>
   <circle class="fil2" cx="1169" cy="1200" r="15"/>
   <circle class="fil2" cx="1206" cy="1200" r="15"/>
   <circle class="fil2" cx="1243" cy="1200" r="15"/>
   <circle class="fil2" cx="1280" cy="1200" r="15"/>
   <circle class="fil2" cx="1317" cy="1200" r="15"/>
   <circle class="fil2" cx="1354" cy="1200" r="15"/>
   <circle class="fil2" cx="1391" cy="1200" r="15"/>
  </g>
  <g id="svipf4">
   <circle class="fil1" cx="1219" cy="1044" r="15"/>
   <circle class="fil1" cx="1232" cy="1075" r="15"/>
   <circle class="fil1" cx="1254" cy="1100" r="15"/>
   <circle class="fil1" cx="1284" cy="1113" r="15"/>
   <circle class="fil1" cx="1318" cy="1114" r="15"/>
   <circle class="fil1" cx="1348" cy="1101" r="15"/>
   <circle class="fil1" cx="1371" cy="1077" r="15"/>
   <circle class="fil1" cx="1382" cy="1045" r="15"/>
  </g>
  <g id="svipf3">
   <circle class="fil1" cx="975" cy="1044" r="15"/>
   <circle class="fil1" cx="987" cy="1075" r="15"/>
   <circle class="fil1" cx="1010" cy="1100" r="15"/>
   <circle class="fil1" cx="1040" cy="1113" r="15"/>
   <circle class="fil1" cx="1073" cy="1114" r="15"/>
   <circle class="fil1" cx="1104" cy="1101" r="15"/>
   <circle class="fil1" cx="1127" cy="1077" r="15"/>
   <circle class="fil1" cx="1138" cy="1045" r="15"/>
  </g>
  <g id="svipf2">
   <circle class="fil1" cx="454" cy="1044" r="15"/>
   <circle class="fil1" cx="466" cy="1075" r="15"/>
   <circle class="fil1" cx="488" cy="1100" r="15"/>
   <circle class="fil1" cx="519" cy="1113" r="15"/>
   <circle class="fil1" cx="552" cy="1114" r="15"/>
   <circle class="fil1" cx="583" cy="1101" r="15"/>
   <circle class="fil1" cx="605" cy="1077" r="15"/>
   <circle class="fil1" cx="617" cy="1045" r="15"/>
  </g>
  <g id="svipf1">
   <circle class="fil1" cx="210" cy="1044" r="15"/>
   <circle class="fil1" cx="222" cy="1075" r="15"/>
   <circle class="fil1" cx="244" cy="1100" r="15"/>
   <circle class="fil1" cx="275" cy="1113" r="15"/>
   <circle class="fil1" cx="308" cy="1114" r="15"/>
   <circle class="fil1" cx="339" cy="1101" r="15"/>
   <circle class="fil1" cx="361" cy="1077" r="15"/>
   <circle class="fil1" cx="373" cy="1045" r="15"/>
  </g>
  <g id="svipe5">
   <circle class="fil1" cx="1105" cy="901" r="15"/>
   <circle class="fil1" cx="1117" cy="931" r="15"/>
   <circle class="fil1" cx="1140" cy="956" r="15"/>
   <circle class="fil1" cx="1170" cy="970" r="15"/>
   <circle class="fil1" cx="1203" cy="970" r="15"/>
   <circle class="fil1" cx="1234" cy="957" r="15"/>
   <circle class="fil1" cx="1257" cy="933" r="15"/>
   <circle class="fil1" cx="1268" cy="901" r="15"/>
  </g>
  <g id="svipe4">
   <circle class="fil1" cx="862" cy="901" r="15"/>
   <circle class="fil1" cx="874" cy="931" r="15"/>
   <circle class="fil1" cx="897" cy="956" r="15"/>
   <circle class="fil1" cx="927" cy="970" r="15"/>
   <circle class="fil1" cx="960" cy="970" r="15"/>
   <circle class="fil1" cx="991" cy="957" r="15"/>
   <circle class="fil1" cx="1014" cy="933" r="15"/>
   <circle class="fil1" cx="1025" cy="901" r="15"/>
  </g>
  <g id="svipe3">
   <circle class="fil1" cx="618" cy="901" r="15"/>
   <circle class="fil1" cx="630" cy="931" r="15"/>
   <circle class="fil1" cx="653" cy="956" r="15"/>
   <circle class="fil1" cx="683" cy="970" r="15"/>
   <circle class="fil1" cx="716" cy="970" r="15"/>
   <circle class="fil1" cx="747" cy="957" r="15"/>
   <circle class="fil1" cx="770" cy="933" r="15"/>
   <circle class="fil1" cx="781" cy="901" r="15"/>
  </g>
  <g id="svipe2">
   <circle class="fil1" cx="380" cy="901" r="15"/>
   <circle class="fil1" cx="392" cy="931" r="15"/>
   <circle class="fil1" cx="415" cy="956" r="15"/>
   <circle class="fil1" cx="445" cy="970" r="15"/>
   <circle class="fil1" cx="478" cy="970" r="15"/>
   <circle class="fil1" cx="509" cy="957" r="15"/>
   <circle class="fil1" cx="532" cy="933" r="15"/>
   <circle class="fil1" cx="543" cy="901" r="15"/>
  </g>
  <g id="svipe1">
   <circle class="fil1" cx="131" cy="901" r="15"/>
   <circle class="fil1" cx="143" cy="931" r="15"/>
   <circle class="fil1" cx="166" cy="956" r="15"/>
   <circle class="fil1" cx="196" cy="970" r="15"/>
   <circle class="fil1" cx="229" cy="970" r="15"/>
   <circle class="fil1" cx="260" cy="957" r="15"/>
   <circle class="fil1" cx="283" cy="933" r="15"/>
   <circle class="fil1" cx="294" cy="901" r="15"/>
  </g>
  <g id="svipd5">
   <circle class="fil1" cx="1219" cy="766" r="15"/>
   <circle class="fil1" cx="1231" cy="797" r="15"/>
   <circle class="fil1" cx="1254" cy="821" r="15"/>
   <circle class="fil1" cx="1284" cy="835" r="15"/>
   <circle class="fil1" cx="1317" cy="836" r="15"/>
   <circle class="fil1" cx="1348" cy="822" r="15"/>
   <circle class="fil1" cx="1371" cy="798" r="15"/>
   <circle class="fil1" cx="1382" cy="767" r="15"/>
  </g>
  <g id="svipd4">
   <circle class="fil1" cx="976" cy="766" r="15"/>
   <circle class="fil1" cx="989" cy="797" r="15"/>
   <circle class="fil1" cx="1011" cy="821" r="15"/>
   <circle class="fil1" cx="1041" cy="835" r="15"/>
   <circle class="fil1" cx="1075" cy="836" r="15"/>
   <circle class="fil1" cx="1105" cy="822" r="15"/>
   <circle class="fil1" cx="1128" cy="798" r="15"/>
   <circle class="fil1" cx="1139" cy="767" r="15"/>
  </g>
  <g id="svipd3">
   <circle class="fil1" cx="732" cy="766" r="15"/>
   <circle class="fil1" cx="744" cy="797" r="15"/>
   <circle class="fil1" cx="767" cy="821" r="15"/>
   <circle class="fil1" cx="797" cy="835" r="15"/>
   <circle class="fil1" cx="830" cy="836" r="15"/>
   <circle class="fil1" cx="861" cy="822" r="15"/>
   <circle class="fil1" cx="884" cy="798" r="15"/>
   <circle class="fil1" cx="895" cy="767" r="15"/>
  </g>
  <g id="svipd2">
   <circle class="fil1" cx="489" cy="766" r="15"/>
   <circle class="fil1" cx="502" cy="797" r="15"/>
   <circle class="fil1" cx="524" cy="821" r="15"/>
   <circle class="fil1" cx="554" cy="835" r="15"/>
   <circle class="fil1" cx="588" cy="836" r="15"/>
   <circle class="fil1" cx="618" cy="822" r="15"/>
   <circle class="fil1" cx="641" cy="798" r="15"/>
   <circle class="fil1" cx="652" cy="767" r="15"/>
  </g>
  <g id="svipd1">
   <circle class="fil1" cx="245" cy="766" r="15"/>
   <circle class="fil1" cx="257" cy="797" r="15"/>
   <circle class="fil1" cx="280" cy="821" r="15"/>
   <circle class="fil1" cx="310" cy="835" r="15"/>
   <circle class="fil1" cx="343" cy="836" r="15"/>
   <circle class="fil1" cx="374" cy="822" r="15"/>
   <circle class="fil1" cx="397" cy="798" r="15"/>
   <circle class="fil1" cx="408" cy="767" r="15"/>
  </g>
  <g id="luxc5">
   <circle class="fil0" cx="1104" cy="634" r="15"/>
   <circle class="fil0" cx="1117" cy="665" r="15"/>
   <circle class="fil0" cx="1139" cy="690" r="15"/>
   <circle class="fil0" cx="1169" cy="703" r="15"/>
   <circle class="fil0" cx="1203" cy="704" r="15"/>
   <circle class="fil0" cx="1233" cy="691" r="15"/>
   <circle class="fil0" cx="1256" cy="667" r="15"/>
   <circle class="fil0" cx="1267" cy="635" r="15"/>
  </g>
  <g id="luxc4">
   <circle class="fil0" cx="862" cy="634" r="15"/>
   <circle class="fil0" cx="874" cy="665" r="15"/>
   <circle class="fil0" cx="896" cy="690" r="15"/>
   <circle class="fil0" cx="927" cy="703" r="15"/>
   <circle class="fil0" cx="960" cy="704" r="15"/>
   <circle class="fil0" cx="990" cy="691" r="15"/>
   <circle class="fil0" cx="1013" cy="667" r="15"/>
   <circle class="fil0" cx="1024" cy="635" r="15"/>
  </g>
  <g id="luxc3">
   <circle class="fil0" cx="617" cy="634" r="15"/>
   <circle class="fil0" cx="630" cy="665" r="15"/>
   <circle class="fil0" cx="652" cy="690" r="15"/>
   <circle class="fil0" cx="683" cy="703" r="15"/>
   <circle class="fil0" cx="716" cy="704" r="15"/>
   <circle class="fil0" cx="746" cy="691" r="15"/>
   <circle class="fil0" cx="769" cy="667" r="15"/>
   <circle class="fil0" cx="780" cy="635" r="15"/>
  </g>
  <g id="luxc2">
   <circle class="fil0" cx="375" cy="634" r="15"/>
   <circle class="fil0" cx="387" cy="665" r="15"/>
   <circle class="fil0" cx="409" cy="690" r="15"/>
   <circle class="fil0" cx="440" cy="703" r="15"/>
   <circle class="fil0" cx="473" cy="704" r="15"/>
   <circle class="fil0" cx="503" cy="691" r="15"/>
   <circle class="fil0" cx="526" cy="667" r="15"/>
   <circle class="fil0" cx="538" cy="635" r="15"/>
  </g>
  <g id="luxc1">
   <circle class="fil0" cx="130" cy="634" r="15"/>
   <circle class="fil0" cx="143" cy="665" r="15"/>
   <circle class="fil0" cx="165" cy="690" r="15"/>
   <circle class="fil0" cx="196" cy="703" r="15"/>
   <circle class="fil0" cx="229" cy="704" r="15"/>
   <circle class="fil0" cx="259" cy="691" r="15"/>
   <circle class="fil0" cx="282" cy="667" r="15"/>
   <circle class="fil0" cx="293" cy="635" r="15"/>
  </g>
  <g id="luxb5">
   <circle class="fil0" cx="1220" cy="497" r="15"/>
   <circle class="fil0" cx="1232" cy="527" r="15"/>
   <circle class="fil0" cx="1254" cy="552" r="15"/>
   <circle class="fil0" cx="1285" cy="566" r="15"/>
   <circle class="fil0" cx="1318" cy="566" r="15"/>
   <circle class="fil0" cx="1349" cy="553" r="15"/>
   <circle class="fil0" cx="1371" cy="529" r="15"/>
   <circle class="fil0" cx="1383" cy="498" r="15"/>
  </g>
  <g id="luxb4">
   <circle class="fil0" cx="977" cy="497" r="15"/>
   <circle class="fil0" cx="989" cy="527" r="15"/>
   <circle class="fil0" cx="1011" cy="552" r="15"/>
   <circle class="fil0" cx="1042" cy="566" r="15"/>
   <circle class="fil0" cx="1075" cy="566" r="15"/>
   <circle class="fil0" cx="1106" cy="553" r="15"/>
   <circle class="fil0" cx="1128" cy="529" r="15"/>
   <circle class="fil0" cx="1140" cy="498" r="15"/>
  </g>
  <g id="luxb3">
   <circle class="fil0" cx="733" cy="497" r="15"/>
   <circle class="fil0" cx="745" cy="527" r="15"/>
   <circle class="fil0" cx="767" cy="552" r="15"/>
   <circle class="fil0" cx="798" cy="566" r="15"/>
   <circle class="fil0" cx="831" cy="566" r="15"/>
   <circle class="fil0" cx="862" cy="553" r="15"/>
   <circle class="fil0" cx="884" cy="529" r="15"/>
   <circle class="fil0" cx="896" cy="498" r="15"/>
  </g>
  <g id="luxb2">
   <circle class="fil0" cx="490" cy="497" r="15"/>
   <circle class="fil0" cx="502" cy="527" r="15"/>
   <circle class="fil0" cx="524" cy="552" r="15"/>
   <circle class="fil0" cx="555" cy="566" r="15"/>
   <circle class="fil0" cx="588" cy="566" r="15"/>
   <circle class="fil0" cx="619" cy="553" r="15"/>
   <circle class="fil0" cx="641" cy="529" r="15"/>
   <circle class="fil0" cx="653" cy="498" r="15"/>
  </g>
  <g id="luxb1">
   <circle class="fil0" cx="246" cy="497" r="15"/>
   <circle class="fil0" cx="258" cy="527" r="15"/>
   <circle class="fil0" cx="280" cy="552" r="15"/>
   <circle class="fil0" cx="311" cy="566" r="15"/>
   <circle class="fil0" cx="344" cy="566" r="15"/>
   <circle class="fil0" cx="375" cy="553" r="15"/>
   <circle class="fil0" cx="397" cy="529" r="15"/>
   <circle class="fil0" cx="409" cy="498" r="15"/>
  </g>
  <g id="luxa5">
   <circle class="fil0" cx="1105" cy="365" r="15"/>
   <circle class="fil0" cx="1117" cy="396" r="15"/>
   <circle class="fil0" cx="1139" cy="421" r="15"/>
   <circle class="fil0" cx="1170" cy="434" r="15"/>
   <circle class="fil0" cx="1203" cy="435" r="15"/>
   <circle class="fil0" cx="1234" cy="421" r="15"/>
   <circle class="fil0" cx="1256" cy="397" r="15"/>
   <circle class="fil0" cx="1268" cy="366" r="15"/>
  </g>
  <g id="luxa4">
   <circle class="fil0" cx="862" cy="365" r="15"/>
   <circle class="fil0" cx="874" cy="396" r="15"/>
   <circle class="fil0" cx="897" cy="421" r="15"/>
   <circle class="fil0" cx="927" cy="434" r="15"/>
   <circle class="fil0" cx="960" cy="435" r="15"/>
   <circle class="fil0" cx="991" cy="421" r="15"/>
   <circle class="fil0" cx="1014" cy="397" r="15"/>
   <circle class="fil0" cx="1025" cy="366" r="15"/>
  </g>
  <g id="luxa3">
   <circle class="fil0" cx="618" cy="365" r="15"/>
   <circle class="fil0" cx="630" cy="396" r="15"/>
   <circle class="fil0" cx="653" cy="421" r="15"/>
   <circle class="fil0" cx="683" cy="434" r="15"/>
   <circle class="fil0" cx="716" cy="435" r="15"/>
   <circle class="fil0" cx="747" cy="421" r="15"/>
   <circle class="fil0" cx="769" cy="397" r="15"/>
   <circle class="fil0" cx="781" cy="366" r="15"/>
  </g>
  <g id="luxa2">
   <circle class="fil0" cx="375" cy="365" r="15"/>
   <circle class="fil0" cx="387" cy="396" r="15"/>
   <circle class="fil0" cx="410" cy="421" r="15"/>
   <circle class="fil0" cx="440" cy="434" r="15"/>
   <circle class="fil0" cx="473" cy="435" r="15"/>
   <circle class="fil0" cx="504" cy="421" r="15"/>
   <circle class="fil0" cx="527" cy="397" r="15"/>
   <circle class="fil0" cx="538" cy="366" r="15"/>
  </g>
  <g id="luxa1">
   <circle class="fil0" cx="131" cy="365" r="15"/>
   <circle class="fil0" cx="143" cy="396" r="15"/>
   <circle class="fil0" cx="166" cy="421" r="15"/>
   <circle class="fil0" cx="196" cy="434" r="15"/>
   <circle class="fil0" cx="229" cy="435" r="15"/>
   <circle class="fil0" cx="260" cy="421" r="15"/>
   <circle class="fil0" cx="283" cy="397" r="15"/>
   <circle class="fil0" cx="294" cy="366" r="15"/>
  </g>
</svg>
